<?xml version="1.0" encoding="utf-8"?>
<!-- Generator: Adobe Illustrator 23.0.0, SVG Export Plug-In . SVG Version: 6.00 Build 0)  -->
<svg version="1.1" id="Слой_1" xmlns="http://www.w3.org/2000/svg" xmlns:xlink="http://www.w3.org/1999/xlink" x="0px" y="0px"
	 viewBox="0 0 50 40" style="enable-background:new 0 0 50 40;" xml:space="preserve">
<style type="text/css">
	.st0{fill-rule:evenodd;clip-rule:evenodd;}
</style>
<path id="cart" class="st0" d="M45,40H5c-2.8,0-5-2.2-5-5V5c0-2.8,2.2-5,5-5h40c2.8,0,5,2.2,5,5v30C50,37.8,47.8,40,45,40z M5,37h40
	c1.1,0,2-0.9,2-2V18H3v17C3,36.1,3.9,37,5,37z M47,5c0-1.1-0.9-2-2-2H5C3.9,3,3,3.9,3,5v3h44V5z M3,11v4h44v-4H3z M9.5,29h4
	c0.8,0,1.5,0.7,1.5,1.5S14.3,32,13.5,32h-4C8.7,32,8,31.3,8,30.5S8.7,29,9.5,29z M19.5,29h4c0.8,0,1.5,0.7,1.5,1.5S24.3,32,23.5,32
	h-4c-0.8,0-1.5-0.7-1.5-1.5S18.7,29,19.5,29z"/>
</svg>
