<?xml version="1.0" encoding="utf-8"?>
<!-- Generator: Adobe Illustrator 23.0.0, SVG Export Plug-In . SVG Version: 6.00 Build 0)  -->
<svg version="1.1" id="Слой_1" xmlns="http://www.w3.org/2000/svg" xmlns:xlink="http://www.w3.org/1999/xlink" x="0px" y="0px"
	 viewBox="0 0 400 50" style="enable-background:new 0 0 400 50;" xml:space="preserve">
<style type="text/css">
	.st0{fill-rule:evenodd;clip-rule:evenodd;fill:#FBFBFB;}
</style>
<path id="cart" class="st0" d="M45.3,47c-0.1,0-0.2,0-0.3,0c0,0,0,0,0,0v0c-0.3,0-0.6-0.1-0.9-0.3L40,43.4l-4.1,3.3h0
	c-0.1,0.1-0.3,0.2-0.4,0.2c0,0-0.1,0-0.1,0c-0.2,0-0.4,0-0.6,0c0,0-0.1,0-0.1,0c-0.2,0-0.3-0.1-0.4-0.2h0L30,43.4l-4.1,3.3h0
	c-0.1,0.1-0.3,0.2-0.4,0.2c0,0-0.1,0-0.1,0c-0.2,0-0.4,0-0.6,0c0,0-0.1,0-0.1,0c-0.2,0-0.3-0.1-0.4-0.2h0L20,43.4l-4.1,3.3h0
	c-0.1,0.1-0.3,0.2-0.4,0.2c0,0-0.1,0-0.1,0c-0.1,0-0.2,0-0.3,0c-0.1,0-0.2,0-0.3,0c0,0-0.1,0-0.1,0c-0.2,0-0.3-0.1-0.4-0.2h0
	L10,43.4l-4.1,3.3C5.6,46.9,5.3,47,5,47v0c0,0,0,0,0,0c-0.1,0-0.2,0-0.3,0C3.2,46.8,2,45.5,2,44V5c0-1.7,1.3-3,3-3h40
	c1.7,0,3,1.3,3,3v39C48,45.5,46.8,46.8,45.3,47z M45,42V6c0-0.6-0.4-1-1-1H6C5.4,5,5,5.4,5,6v37.6l4.1-3.3c0,0,0,0,0,0
	c0.1-0.1,0.2-0.1,0.4-0.2c0.1,0,0.1,0,0.2-0.1c0.1,0,0.2,0,0.3,0c0.1,0,0.2,0,0.3,0c0.1,0,0.1,0,0.2,0.1c0.1,0,0.3,0.1,0.4,0.2
	c0,0,0,0,0,0l4.1,3.3l4.1-3.3c0,0,0,0,0,0c0.1-0.1,0.2-0.1,0.4-0.2c0.1,0,0.1,0,0.2-0.1c0.2,0,0.4,0,0.6,0c0.1,0,0.1,0,0.2,0.1
	c0.1,0,0.3,0.1,0.4,0.2c0,0,0,0,0,0l4.1,3.3l4.1-3.3c0,0,0,0,0,0c0.1-0.1,0.2-0.1,0.4-0.2c0.1,0,0.1,0,0.2-0.1c0.2,0,0.4,0,0.6,0
	c0.1,0,0.1,0,0.2,0.1c0.1,0,0.3,0.1,0.4,0.2c0,0,0,0,0,0l4.1,3.3l4.1-3.3c0,0,0,0,0,0c0.1-0.1,0.2-0.1,0.4-0.2c0.1,0,0.1,0,0.2-0.1
	c0.2,0,0.4,0,0.6,0c0.1,0,0.1,0,0.2,0.1c0.1,0,0.3,0.1,0.4,0.2c0,0,0,0,0,0l4.1,3.3V42z M35,31H22c-0.6,0-1-0.4-1-1v-1
	c0-0.6,0.4-1,1-1h13c0.6,0,1,0.4,1,1v1C36,30.6,35.6,31,35,31z M35,24H22c-0.6,0-1-0.4-1-1v-1c0-0.6,0.4-1,1-1h13c0.6,0,1,0.4,1,1v1
	C36,23.6,35.6,24,35,24z M35,17H22c-0.6,0-1-0.4-1-1v-1c0-0.6,0.4-1,1-1h13c0.6,0,1,0.4,1,1v1C36,16.6,35.6,17,35,17z M17,31h-2
	c-0.6,0-1-0.4-1-1v-1c0-0.6,0.4-1,1-1h2c0.6,0,1,0.4,1,1v1C18,30.6,17.6,31,17,31z M17,24h-2c-0.6,0-1-0.4-1-1v-1c0-0.6,0.4-1,1-1h2
	c0.6,0,1,0.4,1,1v1C18,23.6,17.6,24,17,24z M17,17h-2c-0.6,0-1-0.4-1-1v-1c0-0.6,0.4-1,1-1h2c0.6,0,1,0.4,1,1v1
	C18,16.6,17.6,17,17,17z M95,45H55c-2.8,0-5-2.2-5-5V10c0-2.8,2.2-5,5-5h40c2.8,0,5,2.2,5,5v30C100,42.8,97.8,45,95,45z M55,42h40
	c1.1,0,2-0.9,2-2V23H53v17C53,41.1,53.9,42,55,42z M97,10c0-1.1-0.9-2-2-2H55c-1.1,0-2,0.9-2,2v3h44V10z M53,16v4h44v-4H53z
	 M59.5,34h4c0.8,0,1.5,0.7,1.5,1.5S64.3,37,63.5,37h-4c-0.8,0-1.5-0.7-1.5-1.5S58.7,34,59.5,34z M69.5,34h4c0.8,0,1.5,0.7,1.5,1.5
	S74.3,37,73.5,37h-4c-0.8,0-1.5-0.7-1.5-1.5S68.7,34,69.5,34z M125,50c-13.8,0-25-11.2-25-25s11.2-25,25-25s25,11.2,25,25
	S138.8,50,125,50z M135.8,44.1c-2.1-0.6-3.9-1.7-5.6-3.1c-1.2-1.1-1.7-3.2-1.9-4.6c-2.1,0.8-4.4,0.8-6.6,0.1
	c-0.1,1.7-0.8,3.2-1.9,4.5c-1.7,1.5-3.6,2.5-5.7,3.2C121,48,129.2,47.9,135.8,44.1z M125,33.9c3.9,0,7-3.1,7-7v-5.8c0-3.9-3.1-7-7-7
	c-3.9,0-7,3.1-7,7v5.8C118,30.7,121.1,33.9,125,33.9z M125,3c-12.2,0-22,9.8-22,22c0,6.6,2.9,12.8,8,17c2.3-0.3,4.5-1.2,6.3-2.8
	c1.1-1.1,1.7-2.6,1.7-4.2c-2.5-1.9-4-4.9-4-8v-6c0-5.5,4.5-10,10-10c5.5,0,10,4.5,10,10v6c0,3-1.4,5.9-3.8,7.8
	c0,1.6,0.6,3.2,1.7,4.4c1.7,1.5,3.8,2.4,6.1,2.7c9.3-7.8,10.6-21.6,2.9-31C137.7,5.9,131.5,3,125,3z M193,50h-36c-2.2,0-4-1.8-4-4V8
	c0-2.2,1.8-4,4-4h5.2c0.7-2.4,2.8-4,5.3-4h15c2.5,0,4.6,1.6,5.3,4h5.2c2.2,0,4,1.8,4,4v38C197,48.2,195.2,50,193,50z M182.5,3h-15
	c-1.4,0-2.5,1.1-2.5,2.5s1.1,2.5,2.5,2.5h15c1.4,0,2.5-1.1,2.5-2.5S183.9,3,182.5,3z M194,8c0-0.6-0.4-1-1-1h-5.2
	c-0.7,2.4-2.8,4-5.3,4h-15c-2.5,0-4.6-1.6-5.3-4H157c-0.6,0-1,0.4-1,1v38c0,0.6,0.4,1,1,1h36c0.6,0,1-0.4,1-1V8z M183.5,40h-8
	c-0.8,0-1.5-0.7-1.5-1.5s0.7-1.5,1.5-1.5h8c0.8,0,1.5,0.7,1.5,1.5S184.3,40,183.5,40z M183.5,33h-8c-0.8,0-1.5-0.7-1.5-1.5
	s0.7-1.5,1.5-1.5h8c0.8,0,1.5,0.7,1.5,1.5S184.3,33,183.5,33z M183.5,26h-8c-0.8,0-1.5-0.7-1.5-1.5s0.7-1.5,1.5-1.5h8
	c0.8,0,1.5,0.7,1.5,1.5S184.3,26,183.5,26z M183.5,19h-8c-0.8,0-1.5-0.7-1.5-1.5s0.7-1.5,1.5-1.5h8c0.8,0,1.5,0.7,1.5,1.5
	S184.3,19,183.5,19z M168.5,40h-2c-0.8,0-1.5-0.7-1.5-1.5s0.7-1.5,1.5-1.5h2c0.8,0,1.5,0.7,1.5,1.5S169.3,40,168.5,40z M168.5,33h-2
	c-0.8,0-1.5-0.7-1.5-1.5s0.7-1.5,1.5-1.5h2c0.8,0,1.5,0.7,1.5,1.5S169.3,33,168.5,33z M168.5,26h-2c-0.8,0-1.5-0.7-1.5-1.5
	s0.7-1.5,1.5-1.5h2c0.8,0,1.5,0.7,1.5,1.5S169.3,26,168.5,26z M168.5,19h-2c-0.8,0-1.5-0.7-1.5-1.5s0.7-1.5,1.5-1.5h2
	c0.8,0,1.5,0.7,1.5,1.5S169.3,19,168.5,19z M245.5,27h-24c-0.8,0-1.5-0.7-1.5-1.5s0.7-1.5,1.5-1.5h24c0.8,0,1.5,0.7,1.5,1.5
	S246.3,27,245.5,27L245.5,27z M245.5,11h-24c-0.8,0-1.5-0.7-1.5-1.5s0.7-1.5,1.5-1.5h24c0.8,0,1.5,0.7,1.5,1.5S246.3,11,245.5,11
	L245.5,11z M208.5,48c-3.6,0-6.5-2.9-6.5-6.5s2.9-6.5,6.5-6.5s6.5,2.9,6.5,6.5S212.1,48,208.5,48z M208.5,38c-1.9,0-3.5,1.6-3.5,3.5
	s1.6,3.5,3.5,3.5s3.5-1.6,3.5-3.5S210.4,38,208.5,38z M208.5,32c-3.6,0-6.5-2.9-6.5-6.5s2.9-6.5,6.5-6.5s6.5,2.9,6.5,6.5
	S212.1,32,208.5,32z M208.5,22c-1.9,0-3.5,1.6-3.5,3.5s1.6,3.5,3.5,3.5s3.5-1.6,3.5-3.5S210.4,22,208.5,22z M208.5,16
	c-3.6,0-6.5-2.9-6.5-6.5s2.9-6.5,6.5-6.5s6.5,2.9,6.5,6.5S212.1,16,208.5,16z M208.5,6c-1.9,0-3.5,1.6-3.5,3.5s1.6,3.5,3.5,3.5
	s3.5-1.6,3.5-3.5l0,0C212,7.6,210.4,6,208.5,6z M221.5,40h24c0.8,0,1.5,0.7,1.5,1.5s-0.7,1.5-1.5,1.5l0,0h-24
	c-0.8,0-1.5-0.7-1.5-1.5S220.7,40,221.5,40z M346,48h-42c-2.2,0-4-1.8-4-4V19.8c0,0,0-0.1,0-0.1V18c0-2.2,1.8-4,4-4h5V5
	c0-1.7,1.3-3,3-3h26c1.7,0,3,1.3,3,3v9h5c2.2,0,4,1.8,4,4v26C350,46.2,348.2,48,346,48z M304,17c-0.6,0-1,0.4-1,1v0.6l6,4.3V17H304z
	 M338,5h-26v20.1l12.9,9.3L338,25V5z M347,18c0-0.6-0.4-1-1-1h-5v5.8l6-4.3V18z M347,22.6l-20.9,14.9c-0.7,0.7-1.7,0.7-2.4,0
	L303,22.7V44c0,0.6,0.4,1,1,1h42c0.6,0,1-0.4,1-1V22.6z M323.8,23c-0.5,0-0.9-0.2-1.2-0.5l-5.1-5.6c-0.7-0.7-0.7-1.8,0-2.4
	c0.7-0.7,1.8-0.7,2.4,0l3.9,4.3l7.2-7.3c0.7-0.7,1.8-0.7,2.4,0c0.7,0.7,0.7,1.8,0,2.4l-8.5,8.6C324.7,22.8,324.2,23,323.8,23
	L323.8,23z M393,49h-34c-2.2,0-4-1.8-4-4v-7h-1.5c-0.8,0-1.5-0.7-1.5-1.5s0.7-1.5,1.5-1.5h1.5v-9h-1.5c-0.8,0-1.5-0.7-1.5-1.5
	s0.7-1.5,1.5-1.5h1.5v-9h-1.5c-0.8,0-1.5-0.7-1.5-1.5s0.7-1.5,1.5-1.5h1.5V4c0-2.2,1.8-4,4-4h34c2.2,0,4,1.8,4,4v41
	C397,47.2,395.2,49,393,49z M363,3h-4c-0.6,0-1,0.4-1,1v7h0.5c0.8,0,1.5,0.7,1.5,1.5s-0.7,1.5-1.5,1.5H358v9h0.5
	c0.8,0,1.5,0.7,1.5,1.5s-0.7,1.5-1.5,1.5H358v9h0.5c0.8,0,1.5,0.7,1.5,1.5s-0.7,1.5-1.5,1.5H358v7c0,0.6,0.4,1,1,1h4V3z M394,4
	c0-0.6-0.4-1-1-1h-27v43h27c0.6,0,1-0.4,1-1V4z M387.5,21h-15c-0.8,0-1.5-0.7-1.5-1.5s0.7-1.5,1.5-1.5h15c0.8,0,1.5,0.7,1.5,1.5
	S388.3,21,387.5,21z M387.5,14h-15c-0.8,0-1.5-0.7-1.5-1.5s0.7-1.5,1.5-1.5h15c0.8,0,1.5,0.7,1.5,1.5S388.3,14,387.5,14z M372.5,25
	h7c0.8,0,1.5,0.7,1.5,1.5s-0.7,1.5-1.5,1.5h-7c-0.8,0-1.5-0.7-1.5-1.5S371.7,25,372.5,25z M298,14.7l0,0.5l-3.4,13.1
	c-0.2,0.5-0.5,0.9-0.9,1.2c-0.4,0.3-0.9,0.4-1.4,0.4h-26.2c-0.6,0-1.1-0.3-1.5-0.8c-0.3-0.3-0.5-0.7-0.7-1.2L259,7h-3.3v0h-3.2
	c-0.8,0-1.5-0.7-1.5-1.5s0.7-1.5,1.5-1.5l0,0h8c0.7,0,1.3,0.5,1.4,1.2l0,0l1.7,7.8l32.7,0l0,0h0C297.3,13,298,13.7,298,14.7
	C298,14.7,298,14.7,298,14.7C298,14.7,298,14.7,298,14.7z M267,27h25l2.8-11h-30.4L267,27z M270.5,33c3.6,0,6.5,2.9,6.5,6.5
	s-2.9,6.5-6.5,6.5s-6.5-2.9-6.5-6.5S266.9,33,270.5,33z M270.5,43c1.9,0,3.5-1.6,3.5-3.5s-1.6-3.5-3.5-3.5s-3.5,1.6-3.5,3.5
	S268.6,43,270.5,43z M287.5,33c3.6,0,6.5,2.9,6.5,6.5s-2.9,6.5-6.5,6.5s-6.5-2.9-6.5-6.5S283.9,33,287.5,33z M287.5,43
	c1.9,0,3.5-1.6,3.5-3.5s-1.6-3.5-3.5-3.5s-3.5,1.6-3.5,3.5S285.6,43,287.5,43z"/>
</svg>
