<?xml version="1.0" encoding="utf-8"?>
<!-- Generator: Adobe Illustrator 23.0.0, SVG Export Plug-In . SVG Version: 6.00 Build 0)  -->
<svg version="1.1" id="Слой_1" xmlns="http://www.w3.org/2000/svg" xmlns:xlink="http://www.w3.org/1999/xlink" x="0px" y="0px"
	 viewBox="0 0 46 45" style="enable-background:new 0 0 46 45;" xml:space="preserve">
<style type="text/css">
	.st0{fill-rule:evenodd;clip-rule:evenodd;}
</style>
<path id="cart" class="st0" d="M43.3,45c-0.1,0-0.2,0-0.3,0l0,0l0,0c-0.3,0-0.6-0.1-0.9-0.3L38,41.4l-4.1,3.3l0,0
	c-0.1,0.1-0.3,0.2-0.4,0.2h-0.1c-0.2,0-0.4,0-0.6,0h-0.1c-0.2,0-0.3-0.1-0.4-0.2l0,0L28,41.4l-4.1,3.3l0,0c-0.1,0.1-0.3,0.2-0.4,0.2
	h-0.1c-0.2,0-0.4,0-0.6,0h-0.1c-0.2,0-0.3-0.1-0.4-0.2l0,0L18,41.4l-4.1,3.3l0,0c-0.1,0.1-0.3,0.2-0.4,0.2h-0.1c-0.1,0-0.2,0-0.3,0
	s-0.2,0-0.3,0h-0.1c-0.2,0-0.3-0.1-0.4-0.2l0,0L8,41.4l-4.1,3.3C3.6,44.9,3.3,45,3,45l0,0l0,0c-0.1,0-0.2,0-0.3,0
	C1.2,44.8,0,43.5,0,42V3c0-1.7,1.3-3,3-3h40c1.7,0,3,1.3,3,3v39C46,43.5,44.8,44.8,43.3,45z M43,40V4c0-0.6-0.4-1-1-1H4
	C3.4,3,3,3.4,3,4v37.6l4.1-3.3l0,0c0.1-0.1,0.2-0.1,0.4-0.2c0.1,0,0.1,0,0.2-0.1c0.1,0,0.2,0,0.3,0s0.2,0,0.3,0s0.1,0,0.2,0.1
	c0.1,0,0.3,0.1,0.4,0.2l0,0l4.1,3.3l4.1-3.3l0,0c0.1-0.1,0.2-0.1,0.4-0.2c0.1,0,0.1,0,0.2-0.1c0.2,0,0.4,0,0.6,0
	c0.1,0,0.1,0,0.2,0.1c0.1,0,0.3,0.1,0.4,0.2l0,0l4.1,3.3l4.1-3.3l0,0c0.1-0.1,0.2-0.1,0.4-0.2c0.1,0,0.1,0,0.2-0.1
	c0.2,0,0.4,0,0.6,0c0.1,0,0.1,0,0.2,0.1c0.1,0,0.3,0.1,0.4,0.2l0,0l4.1,3.3l4.1-3.3l0,0c0.1-0.1,0.2-0.1,0.4-0.2
	c0.1,0,0.1,0,0.2-0.1c0.2,0,0.4,0,0.6,0c0.1,0,0.1,0,0.2,0.1c0.1,0,0.3,0.1,0.4,0.2l0,0l4.1,3.3C43,41.6,43,40,43,40z M33,29H20
	c-0.6,0-1-0.4-1-1v-1c0-0.6,0.4-1,1-1h13c0.6,0,1,0.4,1,1v1C34,28.6,33.6,29,33,29z M33,22H20c-0.6,0-1-0.4-1-1v-1c0-0.6,0.4-1,1-1
	h13c0.6,0,1,0.4,1,1v1C34,21.6,33.6,22,33,22z M33,15H20c-0.6,0-1-0.4-1-1v-1c0-0.6,0.4-1,1-1h13c0.6,0,1,0.4,1,1v1
	C34,14.6,33.6,15,33,15z M15,29h-2c-0.6,0-1-0.4-1-1v-1c0-0.6,0.4-1,1-1h2c0.6,0,1,0.4,1,1v1C16,28.6,15.6,29,15,29z M15,22h-2
	c-0.6,0-1-0.4-1-1v-1c0-0.6,0.4-1,1-1h2c0.6,0,1,0.4,1,1v1C16,21.6,15.6,22,15,22z M15,15h-2c-0.6,0-1-0.4-1-1v-1c0-0.6,0.4-1,1-1h2
	c0.6,0,1,0.4,1,1v1C16,14.6,15.6,15,15,15z"/>
</svg>
