<?xml version="1.0" encoding="utf-8"?>
<!-- Generator: Adobe Illustrator 23.0.0, SVG Export Plug-In . SVG Version: 6.00 Build 0)  -->
<svg version="1.1" id="Capa_1" xmlns="http://www.w3.org/2000/svg" xmlns:xlink="http://www.w3.org/1999/xlink" x="0px" y="0px"
	 viewBox="0 0 512 512" style="enable-background:new 0 0 512 512;" xml:space="preserve">
<g>
	<g>
		<path d="M0,64.6v382.7c0,35.2,28.6,63.8,63.8,63.8h191.4c11.8,0,21.3-9.5,21.3-21.3s-9.5-21.3-21.3-21.3H63.8
			c-11.7,0-21.3-9.5-21.3-21.3V64.6c0-11.7,9.5-21.3,21.3-21.3h191.4c11.8,0,21.3-9.5,21.3-21.3s-9.5-21.3-21.3-21.3H63.8"/>
		<path d="M63.8,508.3c-33.6,0-61-27.3-61-61V64.6c0-33.6,27.3-61,61-61h191.4c10.2,0,18.4,8.3,18.4,18.4c0,10.2-8.3,18.4-18.4,18.4
			H63.8c-13.3,0-24.1,10.8-24.1,24.1v382.7c0,13.3,10.8,24.1,24.1,24.1h191.4c10.2,0,18.4,8.3,18.4,18.4s-8.3,18.4-18.4,18.4H63.8z"
			/>
	</g>
</g>
<g>
	<g>
		<path d="M361.5,402c-5,0-9.6-2-13.1-5.5c-7.1-7.2-7-18.9,0.2-26.1l97.3-96H191.4c-10.2,0-18.4-8.3-18.4-18.4
			c0-10.2,8.3-18.4,18.4-18.4h254.5l-97.3-96c-3.5-3.5-5.5-8.1-5.5-13c0-4.9,1.9-9.6,5.3-13.1c3.5-3.5,8.2-5.5,13.1-5.5
			c4.9,0,9.5,1.9,12.9,5.3l129.3,127.6c3.5,3.5,5.5,8.2,5.5,13.1c0,4.9-2,9.7-5.5,13.1L374.4,396.7C370.9,400.1,366.3,402,361.5,402
			z"/>
	</g>
</g>
</svg>
