<?xml version="1.0" encoding="utf-8"?>
<!-- Generator: Adobe Illustrator 23.0.0, SVG Export Plug-In . SVG Version: 6.00 Build 0)  -->
<svg version="1.1" id="Слой_1" xmlns="http://www.w3.org/2000/svg" xmlns:xlink="http://www.w3.org/1999/xlink" x="0px" y="0px"
	 viewBox="0 0 19 16" style="enable-background:new 0 0 19 16;" xml:space="preserve">
<style type="text/css">
	.st0{fill:#434D54;}
</style>
<path class="st0" d="M9.5,16L9,15.7c-0.2-0.2-0.6-0.4-1-0.6c-0.8-0.5-2-1.4-3.3-2.4c-1.4-1.2-2.5-2.3-3.3-3.4C0.5,7.9,0,6.5,0,5.3
	C0,2.4,2.3,0,5.2,0C7,0,8.6,0.9,9.5,2.4C10.4,0.9,12,0,13.8,0C16.7,0,19,2.4,19,5.3c0,1.2-0.5,2.5-1.5,3.9c-0.8,1.1-1.9,2.3-3.3,3.4
	c-1.2,1-2.5,1.9-3.3,2.4c-0.4,0.3-0.7,0.5-1,0.6L9.5,16z M4.7,1.3c-2,0-3.6,1.7-3.6,3.9c0,0.9,0.4,2,1.2,3.2
	c0.8,1.1,1.9,2.3,3.3,3.5c1.3,1.1,2.6,2.1,3.4,2.6c0.2,0.1,0.3,0.2,0.4,0.3c0.1-0.1,0.3-0.2,0.4-0.3c0.9-0.6,2.2-1.5,3.4-2.6
	c1.4-1.2,2.5-2.4,3.3-3.5c0.8-1.2,1.2-2.3,1.2-3.2c0-2.1-1.6-3.9-3.6-3.9c-3.7,0-4.8,3.3-4.8,3.3S8.1,1.3,4.7,1.3z"/>
</svg>
