<svg xmlns="http://www.w3.org/2000/svg" xmlns:xlink="http://www.w3.org/1999/xlink" viewBox="0 0 598.81 463.63"><defs><style>.a,.l,.m,.n{fill:none;}.b{isolation:isolate;}.c{fill:#d1dde8;}.d{fill:#e7edf4;}.e,.q{fill:#235196;}.f{fill:#4dd0e1;}.aa,.ab,.ac,.g,.h,.k,.o,.p,.q,.r,.s,.t,.u,.v,.w,.x,.y,.z{mix-blend-mode:multiply;}.g{fill:url(#a);}.h{fill:url(#b);}.i{clip-path:url(#c);}.j{fill:#fff;}.k{fill:url(#d);}.l{stroke:#235196;stroke-linejoin:round;}.l,.m,.n{stroke-width:3px;}.m{stroke:#e7edf4;}.m,.n{stroke-linecap:round;stroke-miterlimit:10;}.n{stroke:#d1dde8;}.o{fill:url(#e);}.p{fill:url(#f);}.q{opacity:0.6;}.r{fill:url(#g);}.s{fill:url(#h);}.t{fill:url(#i);}.u{fill:url(#j);}.v{fill:url(#k);}.w{fill:url(#l);}.x{fill:url(#m);}.y{fill:url(#n);}.z{fill:url(#o);}.aa{fill:url(#p);}.ab{fill:url(#q);}.ac{fill:url(#r);}</style><linearGradient id="a" x1="1126.38" y1="445.07" x2="943.08" y2="367.79" gradientUnits="userSpaceOnUse"><stop offset="0" stop-color="#fff" stop-opacity="0"/><stop offset="1" stop-color="#235196"/></linearGradient><linearGradient id="b" x1="951.89" y1="300.42" x2="1065.57" y2="403.89" gradientTransform="translate(481.8 -576.57) rotate(40.39)" xlink:href="#a"/><clipPath id="c" transform="translate(-904.07 -84.07)"><ellipse class="a" cx="1024.72" cy="366.71" rx="43.31" ry="34.86" transform="translate(6.59 751.34) rotate(-40.39)"/></clipPath><linearGradient id="d" x1="1350.96" y1="269.03" x2="897.77" y2="269.03" gradientTransform="matrix(1, 0.09, -0.09, 1, -879.7, -128.31)" xlink:href="#a"/><linearGradient id="e" x1="1221.81" y1="179.05" x2="1264.18" y2="249.48" gradientTransform="translate(114.14 -125.72) rotate(21.04)" xlink:href="#a"/><linearGradient id="f" x1="1201.25" y1="592.07" x2="1243.62" y2="662.51" gradientTransform="translate(-82.45 215.42) rotate(-15.79)" xlink:href="#a"/><linearGradient id="g" x1="1371.99" y1="-49.84" x2="1399.05" y2="-4.86" gradientTransform="translate(71.76 -156.1) rotate(18.77)" xlink:href="#a"/><linearGradient id="h" x1="1431.03" y1="-49.63" x2="1458.08" y2="-4.66" gradientTransform="translate(71.76 -156.1) rotate(18.77)" xlink:href="#a"/><linearGradient id="i" x1="1371.88" y1="-18.21" x2="1398.94" y2="26.76" gradientTransform="translate(71.76 -156.1) rotate(18.77)" xlink:href="#a"/><linearGradient id="j" x1="1430.92" y1="-18.01" x2="1457.97" y2="26.97" gradientTransform="translate(71.76 -156.1) rotate(18.77)" xlink:href="#a"/><linearGradient id="k" x1="1371.78" y1="13.42" x2="1398.83" y2="58.39" gradientTransform="translate(71.76 -156.1) rotate(18.77)" xlink:href="#a"/><linearGradient id="l" x1="1430.81" y1="13.62" x2="1457.86" y2="58.59" gradientTransform="translate(71.76 -156.1) rotate(18.77)" xlink:href="#a"/><linearGradient id="m" x1="1371.67" y1="45.04" x2="1398.72" y2="90.01" gradientTransform="translate(71.76 -156.1) rotate(18.77)" xlink:href="#a"/><linearGradient id="n" x1="1430.7" y1="45.24" x2="1457.75" y2="90.22" gradientTransform="translate(71.76 -156.1) rotate(18.77)" xlink:href="#a"/><linearGradient id="o" x1="1371.56" y1="76.67" x2="1398.61" y2="121.64" gradientTransform="translate(71.76 -156.1) rotate(18.77)" xlink:href="#a"/><linearGradient id="p" x1="1430.59" y1="76.87" x2="1457.64" y2="121.84" gradientTransform="translate(71.76 -156.1) rotate(18.77)" xlink:href="#a"/><linearGradient id="q" x1="1371.45" y1="108.29" x2="1398.5" y2="153.26" gradientTransform="translate(71.76 -156.1) rotate(18.77)" xlink:href="#a"/><linearGradient id="r" x1="1430.48" y1="108.49" x2="1457.53" y2="153.47" gradientTransform="translate(71.76 -156.1) rotate(18.77)" xlink:href="#a"/></defs><title>medicine</title><g class="b"><circle class="c" cx="1236.82" cy="248.9" r="164.83" transform="translate(-717.81 863.4) rotate(-45)"/><circle class="d" cx="1436.21" cy="373.09" r="66.67" transform="translate(-747.23 1040.76) rotate(-45)"/><path class="e" d="M1113,424.68h0l-49-84.91-80.47,50.33,49.87,86.75a31.42,31.42,0,0,0,4.06,6.12c13.77,16.18,41.23,15.44,61.34-1.67C1117.48,465.42,1123.24,441,1113,424.68Z" transform="translate(-904.07 -84.07)"/><path class="f" d="M1082.84,449.25a63,63,0,0,0,11.52-12.9c-.23-.42-.43-.84-.68-1.25h0l-19-33a63.43,63.43,0,0,1-10.23,11c-21.8,18.54-51.57,19.38-66.54,1.88l23.5,40.87C1037.34,468.23,1063.27,465.89,1082.84,449.25Z" transform="translate(-904.07 -84.07)"/><path class="g" d="M1066.3,492.45a35.63,35.63,0,0,1-4.65-7l-57.07-99.27,63.36-39.63-3.92-6.79-80.47,50.33,49.87,86.75a31.42,31.42,0,0,0,4.06,6.12c7.37,8.66,18.67,12.42,30.65,11.47Q1067.19,493.49,1066.3,492.45Z" transform="translate(-904.07 -84.07)"/><ellipse class="e" cx="1024.72" cy="366.71" rx="47.8" ry="38.47" transform="translate(-897.48 667.28) rotate(-40.39)"/><ellipse class="h" cx="1024.72" cy="366.71" rx="43.31" ry="34.86" transform="translate(-897.48 667.28) rotate(-40.39)"/><g class="i"><path class="c" d="M1076.37,385.57l-.09-7.91-1.85,0a18,18,0,0,0-32.29.34l-1.85,0,.09,7.91a18,18,0,1,0,36-.38Z" transform="translate(-904.07 -84.07)"/><circle class="d" cx="1058.29" cy="377.85" r="18" transform="translate(-861.29 774.93) rotate(-45)"/><path class="j" d="M1040.72,374a17.51,17.51,0,0,0,.09,8.1l35-.37a17.54,17.54,0,0,0,.43-4.06,18.11,18.11,0,0,0-.51-4.05Z" transform="translate(-904.07 -84.07)"/><path class="c" d="M1046.83,349l-7.26-3.14-.73,1.7A18,18,0,0,0,1026,377.21l-.73,1.7,7.26,3.14a18,18,0,1,0,14.29-33Z" transform="translate(-904.07 -84.07)"/><path class="d" d="M1048.94,369.54a18,18,0,1,1-9.37-23.66A18,18,0,0,1,1048.94,369.54Z" transform="translate(-904.07 -84.07)"/><path class="j" d="M1021.75,376.87a17.71,17.71,0,0,0,7.44,3.22l13.91-32.17a17.71,17.71,0,0,0-7.44-3.22Z" transform="translate(-904.07 -84.07)"/><path class="c" d="M1032.08,399.94l-1.83-7.7-1.8.43A18,18,0,0,0,997,400.13l-1.8.43,1.83,7.69a18,18,0,1,0,35-8.31Z" transform="translate(-904.07 -84.07)"/><circle class="d" cx="1012.74" cy="396.4" r="18" transform="translate(-960.22 111.72) rotate(-10.75)"/><path class="j" d="M994.76,396.51a18.25,18.25,0,0,0,.47,4.05,18,18,0,0,0,1.4,3.83l34.09-8.1a17.68,17.68,0,0,0-.47-4.05,17.49,17.49,0,0,0-1.4-3.83Z" transform="translate(-904.07 -84.07)"/></g><path class="c" d="M1064.12,311.34l-1.83-7.7-1.8.43a18,18,0,0,0-31.42,7.46l-1.8.43,1.83,7.7a18,18,0,1,0,35-8.32Z" transform="translate(-904.07 -84.07)"/><path class="d" d="M1048.94,325.31a18,18,0,1,1,13.35-21.67A18,18,0,0,1,1048.94,325.31Z" transform="translate(-904.07 -84.07)"/><path class="j" d="M1026.8,307.91a17.4,17.4,0,0,0,1.87,7.88l34.1-8.1a18.27,18.27,0,0,0-.48-4.05,17.49,17.49,0,0,0-1.4-3.83Z" transform="translate(-904.07 -84.07)"/><path class="c" d="M1020.59,249.11l-1.82-7.7-1.8.43a18,18,0,0,0-31.42,7.46l-1.8.43,1.82,7.7a18,18,0,0,0,35-8.32Z" transform="translate(-904.07 -84.07)"/><path class="d" d="M1005.42,263.08a18,18,0,1,1,13.35-21.67A18,18,0,0,1,1005.42,263.08Z" transform="translate(-904.07 -84.07)"/><path class="j" d="M983.27,245.68a17.58,17.58,0,0,0,1.88,7.88l34.09-8.09a18.27,18.27,0,0,0-.47-4.06,18.58,18.58,0,0,0-1.4-3.83Z" transform="translate(-904.07 -84.07)"/><path class="c" d="M991.13,292.22l-7.45-7.79-2,2.29c-18.3-6.86-41.91,2-56.26,22.45-11.4,16.23-14,35.46-8.18,50.16l-2.07,2.33,11,11h0a31.87,31.87,0,0,0,3.53,2.88c18.85,13.24,47.46,5,63.91-18.43C1009.5,334.5,1008.57,310.28,991.13,292.22Z" transform="translate(-904.07 -84.07)"/><path class="d" d="M946.57,381.67a33.73,33.73,0,0,1-4.36-.66L914.9,351l-5.56-6.11,2-1.87,3,3.26Z" transform="translate(-904.07 -84.07)"/><path class="d" d="M957.64,381.21c-1.1.19-2.22.36-3.32.46l-33.48-36.74,2-1.87Z" transform="translate(-904.07 -84.07)"/><path class="d" d="M966.82,378.64c-.93.37-1.89.71-2.84,1l-31.63-34.71,2-1.87Z" transform="translate(-904.07 -84.07)"/><path class="d" d="M974.78,374.76c-.83.47-1.66.95-2.49,1.39l-28.46-31.22,2.06-1.87Z" transform="translate(-904.07 -84.07)"/><path class="d" d="M981.8,369.86c-.73.58-1.46,1.14-2.2,1.68l-24.26-26.61,2-1.87Z" transform="translate(-904.07 -84.07)"/><path class="d" d="M988,364c-.63.69-1.27,1.33-1.93,2l-19.24-21.08,2.06-1.87Z" transform="translate(-904.07 -84.07)"/><path class="d" d="M993.55,357.21c-.54.77-1.1,1.53-1.68,2.26L968.3,333.61l2-1.86Z" transform="translate(-904.07 -84.07)"/><path class="d" d="M998.33,349.46c-.44.85-.92,1.7-1.41,2.53l-28.62-31.4,2-1.87Z" transform="translate(-904.07 -84.07)"/><path class="d" d="M1002.17,340.63c-.33,1-.68,2-1.1,2.91l-32.77-36,2-1.87Z" transform="translate(-904.07 -84.07)"/><path class="d" d="M1004.58,330.25c-.15,1.16-.33,2.33-.56,3.49L968.3,294.57l2-1.87Z" transform="translate(-904.07 -84.07)"/><path class="d" d="M1004.79,321.57,971,284.52l-2.7-3,2-1.87,4.82,5.3,29,31.83A36.45,36.45,0,0,1,1004.79,321.57Z" transform="translate(-904.07 -84.07)"/><ellipse class="d" cx="949.36" cy="323" rx="51.81" ry="41.7" transform="translate(-764.71 830.14) rotate(-54.92)"/><path class="j" d="M957.73,279.6h0a31.43,31.43,0,0,1,18.21,5.57c16.7,11.73,18.37,38.25,3.71,59.11-9.59,13.65-24.4,22.13-38.65,22.13a31.5,31.5,0,0,1-18.21-5.57c-16.7-11.74-18.37-38.25-3.72-59.11,9.59-13.65,24.4-22.13,38.66-22.13m0-1c-14.11,0-29.33,8.11-39.47,22.55-15,21.35-13.23,48.44,4,60.5A32.29,32.29,0,0,0,941,367.41c14.11,0,29.33-8.11,39.47-22.56,15-21.34,13.22-48.43-4-60.5a32.3,32.3,0,0,0-18.78-5.75Z" transform="translate(-904.07 -84.07)"/><path class="f" d="M1368.59,547.51l-248.21-42.35a12.61,12.61,0,0,1-10.44-13.55l31.5-353.91a12.61,12.61,0,0,1,12.67-11.49l251.79,2.15a12.62,12.62,0,0,1,12.46,13.73L1383.28,536.2A12.61,12.61,0,0,1,1368.59,547.51Z" transform="translate(-904.07 -84.07)"/><polygon class="d" points="463.3 450.9 219.51 409.3 249.47 72.74 496.78 74.86 463.3 450.9"/><polygon class="k" points="463.3 450.9 219.51 409.3 249.47 72.74 496.78 74.86 463.3 450.9"/><path class="j" d="M1400.85,158.92l-247.31-2.11s-32.81,277.06-53.8,294.82l247,53.92Z" transform="translate(-904.07 -84.07)"/><path class="d" d="M1099.74,451.63s-27.14-13.12-24.72-50.38L1295.35,453s45.56,90,54.94,29.86l-3.54,22.71Z" transform="translate(-904.07 -84.07)"/><circle class="e" cx="1235.25" cy="144" r="6.21" transform="translate(-907.7 168.4) rotate(-11.65)"/><circle class="e" cx="1323.82" cy="143.87" r="6.21" transform="translate(-903.52 208.63) rotate(-12.62)"/><path class="l" d="M1235.25,144l-2,22.06a6,6,0,0,0,6,6.56l29.46-.05.09-1a6.32,6.32,0,0,1,6.25-5.78l2.82,0a6.31,6.31,0,0,1,6.34,6.82h0l31.52,0a6,6,0,0,0,6-5.49l2-23.13" transform="translate(-904.07 -84.07)"/><line class="m" x1="282.33" y1="128.15" x2="438.98" y2="132.28"/><line class="m" x1="280.24" y1="151.67" x2="436.89" y2="155.8"/><line class="m" x1="276.37" y1="175.02" x2="433.02" y2="179.15"/><line class="m" x1="272.51" y1="198.37" x2="429.16" y2="202.5"/><line class="m" x1="268.65" y1="221.73" x2="425.3" y2="225.86"/><path class="d" d="M1248.52,364.36a24.75,24.75,0,1,1-22.46-26.85A24.75,24.75,0,0,1,1248.52,364.36Z" transform="translate(-904.07 -84.07)"/><path class="n" d="M1178.12,377.72a39.56,39.56,0,0,1-8.4-30.62c.39-2.61,1.44-5.61,4-6.34,3.75-1.06,6.44,3.51,7.65,7.22q2.33,7.18,4.66,14.36a4.09,4.09,0,0,0,1.45,2.38c3.79,2.37,5.57-8.51,9.74-6.89,2.28.88,1.57,4.39,2.92,6.43,1.52,2.28,5,1.89,7.45.57s4.57-3.36,7.3-3.64,5.21,1.17,7.84.88c4.56-.49,8.14-6,12.56-4.74" transform="translate(-904.07 -84.07)"/><path class="j" d="M1222.07,512.34l-38.45-14.79a13.55,13.55,0,0,0-17.51,7.78h0a13.55,13.55,0,0,0,7.78,17.52l38.45,14.79a13.55,13.55,0,0,0,17.51-7.78h0A13.55,13.55,0,0,0,1222.07,512.34Z" transform="translate(-904.07 -84.07)"/><path class="e" d="M1222.07,512.34,1202.85,505l-9.74,25.3,19.23,7.39a13.55,13.55,0,0,0,9.73-25.3Z" transform="translate(-904.07 -84.07)"/><path class="o" d="M1221.7,530.09,1172,511a13.58,13.58,0,0,1-6.17-4.79,13.54,13.54,0,0,0,8.06,16.67l38.45,14.79a13.54,13.54,0,0,0,17.15-7A13.49,13.49,0,0,1,1221.7,530.09Z" transform="translate(-904.07 -84.07)"/><path class="j" d="M1279.47,465l-39.64,11.21a13.55,13.55,0,0,0-9.35,16.73h0a13.56,13.56,0,0,0,16.73,9.36L1286.84,491a13.55,13.55,0,0,0,9.36-16.73h0A13.57,13.57,0,0,0,1279.47,465Z" transform="translate(-904.07 -84.07)"/><path class="e" d="M1279.47,465l-19.82,5.61,7.38,26.08,19.81-5.6a13.56,13.56,0,1,0-7.37-26.09Z" transform="translate(-904.07 -84.07)"/><path class="p" d="M1289.81,479.38l-51.24,14.48a13.46,13.46,0,0,1-7.81-.13,13.55,13.55,0,0,0,16.45,8.52L1286.84,491a13.55,13.55,0,0,0,9.56-15.87A13.56,13.56,0,0,1,1289.81,479.38Z" transform="translate(-904.07 -84.07)"/><polygon class="f" points="170.92 73.46 157.26 73.46 157.26 59.81 142.05 59.81 142.05 73.46 128.39 73.46 128.39 88.68 142.05 88.68 142.05 102.33 157.26 102.33 157.26 88.68 170.92 88.68 170.92 73.46"/><polygon class="e" points="209.68 128.32 200.41 128.32 200.41 119.05 190.08 119.05 190.08 128.32 180.81 128.32 180.81 138.65 190.08 138.65 190.08 147.92 200.41 147.92 200.41 138.65 209.68 138.65 209.68 128.32"/><polygon class="f" points="573.38 104.15 564.11 104.15 564.11 94.88 553.78 94.88 553.78 104.15 544.51 104.15 544.51 114.48 553.78 114.48 553.78 123.75 564.11 123.75 564.11 114.48 573.38 114.48 573.38 104.15"/><path class="e" d="M1424.32,464.06l64.91-188.9c1.33-3.88-1.14-8.26-5.52-9.76l-109.12-37.5c-4.39-1.51-9,.42-10.36,4.31l-64.91,188.9c-1.33,3.88,1.14,8.25,5.52,9.76L1414,468.37C1418.35,469.87,1423,467.94,1424.32,464.06Z" transform="translate(-904.07 -84.07)"/><path class="q" d="M1406.32,262.63l-24.9-8.46a8.66,8.66,0,0,0-11,5.41h0a8.65,8.65,0,0,0,5.41,11l24.9,8.46a8.65,8.65,0,0,0,11-5.41h0A8.67,8.67,0,0,0,1406.32,262.63Z" transform="translate(-904.07 -84.07)"/><path class="q" d="M1462.14,281.82l-24.9-8.47a8.66,8.66,0,0,0-11,5.41h0a8.65,8.65,0,0,0,5.41,11l24.9,8.46a8.64,8.64,0,0,0,11-5.41h0A8.64,8.64,0,0,0,1462.14,281.82Z" transform="translate(-904.07 -84.07)"/><path class="q" d="M1396.2,292.08l-24.9-8.46a8.65,8.65,0,0,0-11,5.4h0a8.66,8.66,0,0,0,5.41,11l24.9,8.46a8.65,8.65,0,0,0,11-5.41h0A8.64,8.64,0,0,0,1396.2,292.08Z" transform="translate(-904.07 -84.07)"/><path class="q" d="M1452,311.26l-24.9-8.46a8.65,8.65,0,0,0-11,5.41h0a8.65,8.65,0,0,0,5.41,11l24.9,8.46a8.67,8.67,0,0,0,11-5.41h0A8.67,8.67,0,0,0,1452,311.26Z" transform="translate(-904.07 -84.07)"/><path class="q" d="M1386.08,321.52l-24.9-8.46a8.65,8.65,0,0,0-11,5.41h0a8.67,8.67,0,0,0,5.41,11l24.9,8.46a8.67,8.67,0,0,0,11-5.41h0A8.65,8.65,0,0,0,1386.08,321.52Z" transform="translate(-904.07 -84.07)"/><path class="q" d="M1441.91,340.7l-24.9-8.46a8.66,8.66,0,0,0-11,5.41h0a8.66,8.66,0,0,0,5.41,11l24.9,8.46a8.65,8.65,0,0,0,11-5.41h0A8.66,8.66,0,0,0,1441.91,340.7Z" transform="translate(-904.07 -84.07)"/><path class="q" d="M1375.65,351.89l-24.9-8.46a8.65,8.65,0,0,0-11,5.41h0a8.65,8.65,0,0,0,5.41,11l24.9,8.46a8.66,8.66,0,0,0,11-5.41h0A8.67,8.67,0,0,0,1375.65,351.89Z" transform="translate(-904.07 -84.07)"/><path class="q" d="M1431.47,371.08l-24.9-8.47a8.67,8.67,0,0,0-11,5.41h0a8.67,8.67,0,0,0,5.41,11l24.9,8.46a8.65,8.65,0,0,0,11-5.41h0A8.64,8.64,0,0,0,1431.47,371.08Z" transform="translate(-904.07 -84.07)"/><path class="q" d="M1365.3,382l-24.9-8.46a8.65,8.65,0,0,0-11,5.41h0a8.65,8.65,0,0,0,5.41,11l24.9,8.46a8.67,8.67,0,0,0,11-5.41h0A8.67,8.67,0,0,0,1365.3,382Z" transform="translate(-904.07 -84.07)"/><path class="q" d="M1421.12,401.19l-24.9-8.46a8.65,8.65,0,0,0-11,5.41h0a8.65,8.65,0,0,0,5.4,11l24.91,8.46a8.64,8.64,0,0,0,11-5.41h0A8.65,8.65,0,0,0,1421.12,401.19Z" transform="translate(-904.07 -84.07)"/><path class="q" d="M1355.18,411.45l-24.9-8.46a8.66,8.66,0,0,0-11,5.41h0a8.66,8.66,0,0,0,5.41,11l24.9,8.46a8.65,8.65,0,0,0,11-5.41h0A8.66,8.66,0,0,0,1355.18,411.45Z" transform="translate(-904.07 -84.07)"/><path class="q" d="M1411,430.64l-24.9-8.46a8.65,8.65,0,0,0-11,5.4h0a8.65,8.65,0,0,0,5.41,11l24.9,8.46a8.65,8.65,0,0,0,11-5.41h0A8.66,8.66,0,0,0,1411,430.64Z" transform="translate(-904.07 -84.07)"/><path class="j" d="M1408,257.82l-24.9-8.46a8.66,8.66,0,0,0-11,5.41h0a8.66,8.66,0,0,0,5.41,11l24.9,8.46a8.65,8.65,0,0,0,11-5.41h0A8.65,8.65,0,0,0,1408,257.82Z" transform="translate(-904.07 -84.07)"/><path class="r" d="M1408.19,269.15,1376,258.21a8.49,8.49,0,0,1-4.06-2.89,8.65,8.65,0,0,0,5.56,10.43l24.9,8.46a8.64,8.64,0,0,0,10.77-4.88A8.57,8.57,0,0,1,1408.19,269.15Z" transform="translate(-904.07 -84.07)"/><path class="j" d="M1463.8,277l-24.9-8.46a8.65,8.65,0,0,0-11,5.4h0a8.65,8.65,0,0,0,5.41,11l24.9,8.46a8.66,8.66,0,0,0,11-5.4h0A8.66,8.66,0,0,0,1463.8,277Z" transform="translate(-904.07 -84.07)"/><path class="s" d="M1464,288.34l-32.19-10.94a8.67,8.67,0,0,1-4.06-2.9,8.64,8.64,0,0,0,5.57,10.43l24.9,8.46a8.65,8.65,0,0,0,10.77-4.88A8.6,8.6,0,0,1,1464,288.34Z" transform="translate(-904.07 -84.07)"/><path class="j" d="M1397.69,287.73l-24.9-8.46a8.64,8.64,0,0,0-11,5.41h0a8.66,8.66,0,0,0,5.4,11l24.9,8.46a8.66,8.66,0,0,0,11-5.41h0A8.65,8.65,0,0,0,1397.69,287.73Z" transform="translate(-904.07 -84.07)"/><path class="t" d="M1397.91,299.06l-32.19-10.94a8.62,8.62,0,0,1-4.06-2.9,8.65,8.65,0,0,0,5.56,10.44l24.9,8.46a8.65,8.65,0,0,0,10.77-4.89A8.57,8.57,0,0,1,1397.91,299.06Z" transform="translate(-904.07 -84.07)"/><path class="j" d="M1453.52,306.91l-24.9-8.46a8.67,8.67,0,0,0-11,5.41h0a8.66,8.66,0,0,0,5.41,11l24.9,8.46a8.65,8.65,0,0,0,11-5.41h0A8.65,8.65,0,0,0,1453.52,306.91Z" transform="translate(-904.07 -84.07)"/><path class="u" d="M1453.74,318.24l-32.2-10.93a8.59,8.59,0,0,1-4-2.9,8.64,8.64,0,0,0,5.56,10.43l24.9,8.46a8.64,8.64,0,0,0,10.77-4.88A8.57,8.57,0,0,1,1453.74,318.24Z" transform="translate(-904.07 -84.07)"/><path class="j" d="M1387.42,317.64l-24.9-8.46a8.65,8.65,0,0,0-11,5.41h0a8.64,8.64,0,0,0,5.41,11l24.9,8.47a8.67,8.67,0,0,0,11-5.41h0A8.67,8.67,0,0,0,1387.42,317.64Z" transform="translate(-904.07 -84.07)"/><path class="v" d="M1387.63,329,1355.44,318a8.67,8.67,0,0,1-4.06-2.9,8.64,8.64,0,0,0,5.57,10.43l24.9,8.47a8.66,8.66,0,0,0,10.77-4.89A8.6,8.6,0,0,1,1387.63,329Z" transform="translate(-904.07 -84.07)"/><path class="j" d="M1443.24,336.82l-24.9-8.46a8.65,8.65,0,0,0-11,5.41h0a8.67,8.67,0,0,0,5.41,11l24.9,8.46a8.65,8.65,0,0,0,11-5.41h0A8.65,8.65,0,0,0,1443.24,336.82Z" transform="translate(-904.07 -84.07)"/><path class="w" d="M1443.46,348.15l-32.19-10.94a8.55,8.55,0,0,1-4.06-2.9,8.65,8.65,0,0,0,5.56,10.44l24.9,8.46a8.64,8.64,0,0,0,10.77-4.88A8.66,8.66,0,0,1,1443.46,348.15Z" transform="translate(-904.07 -84.07)"/><path class="j" d="M1377.14,347.55l-24.9-8.47a8.67,8.67,0,0,0-11,5.41h0a8.66,8.66,0,0,0,5.41,11l24.9,8.46a8.65,8.65,0,0,0,11-5.41h0A8.65,8.65,0,0,0,1377.14,347.55Z" transform="translate(-904.07 -84.07)"/><path class="x" d="M1377.36,358.88l-32.2-10.94a8.59,8.59,0,0,1-4.05-2.9,8.64,8.64,0,0,0,5.56,10.43l24.9,8.46a8.64,8.64,0,0,0,10.77-4.88A8.65,8.65,0,0,1,1377.36,358.88Z" transform="translate(-904.07 -84.07)"/><path class="j" d="M1433,366.73l-24.9-8.46a8.65,8.65,0,0,0-11,5.41h0a8.65,8.65,0,0,0,5.41,11l24.9,8.46a8.67,8.67,0,0,0,11-5.41h0A8.67,8.67,0,0,0,1433,366.73Z" transform="translate(-904.07 -84.07)"/><path class="y" d="M1433.18,378.06,1401,367.12a8.67,8.67,0,0,1-4.06-2.9,8.66,8.66,0,0,0,5.57,10.44l24.9,8.46a8.66,8.66,0,0,0,10.77-4.89A8.6,8.6,0,0,1,1433.18,378.06Z" transform="translate(-904.07 -84.07)"/><path class="j" d="M1366.86,377.45,1342,369a8.66,8.66,0,0,0-11,5.41h0a8.67,8.67,0,0,0,5.41,11l24.9,8.46a8.65,8.65,0,0,0,11-5.41h0A8.65,8.65,0,0,0,1366.86,377.45Z" transform="translate(-904.07 -84.07)"/><path class="z" d="M1367.08,388.78l-32.19-10.93a8.62,8.62,0,0,1-4.06-2.9,8.65,8.65,0,0,0,5.56,10.43l24.9,8.46a8.64,8.64,0,0,0,10.77-4.88A8.57,8.57,0,0,1,1367.08,388.78Z" transform="translate(-904.07 -84.07)"/><path class="j" d="M1422.69,396.64l-24.9-8.46a8.65,8.65,0,0,0-11,5.41h0a8.65,8.65,0,0,0,5.41,11l24.9,8.46a8.65,8.65,0,0,0,11-5.4h0A8.66,8.66,0,0,0,1422.69,396.64Z" transform="translate(-904.07 -84.07)"/><path class="aa" d="M1422.91,408,1390.71,397a8.59,8.59,0,0,1-4-2.9,8.64,8.64,0,0,0,5.56,10.43l24.9,8.46a8.64,8.64,0,0,0,10.77-4.88A8.57,8.57,0,0,1,1422.91,408Z" transform="translate(-904.07 -84.07)"/><path class="j" d="M1356.59,407.36l-24.9-8.46a8.65,8.65,0,0,0-11,5.41h0a8.65,8.65,0,0,0,5.41,11l24.9,8.46a8.65,8.65,0,0,0,11-5.41h0A8.65,8.65,0,0,0,1356.59,407.36Z" transform="translate(-904.07 -84.07)"/><path class="ab" d="M1356.8,418.69l-32.19-10.94a8.67,8.67,0,0,1-4.06-2.9,8.66,8.66,0,0,0,5.57,10.44l24.9,8.46a8.65,8.65,0,0,0,10.77-4.88A8.69,8.69,0,0,1,1356.8,418.69Z" transform="translate(-904.07 -84.07)"/><path class="j" d="M1412.41,426.55l-24.9-8.47a8.67,8.67,0,0,0-11,5.41h0a8.67,8.67,0,0,0,5.41,11l24.9,8.46a8.65,8.65,0,0,0,11-5.41h0A8.64,8.64,0,0,0,1412.41,426.55Z" transform="translate(-904.07 -84.07)"/><path class="ac" d="M1412.63,437.88l-32.19-10.94a8.62,8.62,0,0,1-4.06-2.9,8.64,8.64,0,0,0,5.56,10.43l24.9,8.46a8.64,8.64,0,0,0,10.77-4.88A8.65,8.65,0,0,1,1412.63,437.88Z" transform="translate(-904.07 -84.07)"/><path class="f" d="M1436.21,501.09a11.7,11.7,0,1,1-11.7-11.7A11.69,11.69,0,0,1,1436.21,501.09Z" transform="translate(-904.07 -84.07)"/><path class="f" d="M984.11,462.1a11.7,11.7,0,1,1-11.7-11.7A11.69,11.69,0,0,1,984.11,462.1Z" transform="translate(-904.07 -84.07)"/><path class="f" d="M1453.51,525.68a6.19,6.19,0,1,1-6.19-6.2A6.19,6.19,0,0,1,1453.51,525.68Z" transform="translate(-904.07 -84.07)"/><path class="f" d="M953.45,441.74a6.2,6.2,0,1,1-6.19-6.19A6.19,6.19,0,0,1,953.45,441.74Z" transform="translate(-904.07 -84.07)"/></g></svg>