<?xml version="1.0" encoding="utf-8"?>
<!-- Generator: Adobe Illustrator 23.0.0, SVG Export Plug-In . SVG Version: 6.00 Build 0)  -->
<svg version="1.1" id="Слой_1" xmlns="http://www.w3.org/2000/svg" xmlns:xlink="http://www.w3.org/1999/xlink" x="0px" y="0px"
	 viewBox="0 0 50 50" style="enable-background:new 0 0 50 50;" xml:space="preserve">
<style type="text/css">
	.st0{fill-rule:evenodd;clip-rule:evenodd;}
</style>
<path id="cart" class="st0" d="M25,50C11.2,50,0,38.8,0,25S11.2,0,25,0s25,11.2,25,25S38.8,50,25,50z M35.8,44.1
	c-2.1-0.6-3.9-1.7-5.6-3.1c-1.2-1.1-1.7-3.2-1.9-4.6c-2.1,0.8-4.4,0.8-6.6,0.1c-0.1,1.7-0.8,3.2-1.9,4.5c-1.7,1.5-3.6,2.5-5.7,3.2
	C21,48,29.2,47.9,35.8,44.1z M25,33.9c3.9,0,7-3.1,7-7v-5.8c0-3.9-3.1-7-7-7s-7,3.1-7,7v5.8C18,30.7,21.1,33.9,25,33.9z M25,3
	C12.8,3,3,12.8,3,25c0,6.6,2.9,12.8,8,17c2.3-0.3,4.5-1.2,6.3-2.8c1.1-1.1,1.7-2.6,1.7-4.2c-2.5-1.9-4-4.9-4-8v-6
	c0-5.5,4.5-10,10-10s10,4.5,10,10v6c0,3-1.4,5.9-3.8,7.8c0,1.6,0.6,3.2,1.7,4.4c1.7,1.5,3.8,2.4,6.1,2.7c9.3-7.8,10.6-21.6,2.9-31
	C37.7,5.9,31.5,3,25,3z"/>
</svg>
