<svg xmlns="http://www.w3.org/2000/svg" style="display: none;">
    <symbol id="icon-notification" viewBox="-43 0 512 512">
        <path d="m413.417969 360.8125c-32.253907-27.265625-50.75-67.117188-50.75-109.335938v-59.476562c0-75.070312-55.765625-137.214844-128-147.625v-23.042969c0-11.796875-9.558594-21.332031-21.335938-21.332031-11.773437 0-21.332031 9.535156-21.332031 21.332031v23.042969c-72.257812 10.410156-128 72.554688-128 147.625v59.476562c0 42.21875-18.496094 82.070313-50.945312 109.503907-8.296876 7.105469-13.054688 17.429687-13.054688 28.351562 0 20.589844 16.746094 37.335938 37.332031 37.335938h352c20.589844 0 37.335938-16.746094 37.335938-37.335938 0-10.921875-4.757813-21.246093-13.25-28.519531zm0 0"/>
        <path d="m213.332031 512c38.636719 0 70.957031-27.542969 78.378907-64h-156.757813c7.425781 36.457031 39.746094 64 78.378906 64zm0 0"/>
    </symbol>
    <symbol id="icon-header-phone" viewBox="0 0 513.64 513.64">
        <g>
            <g>
                <path d="M499.66,376.96l-71.68-71.68c-25.6-25.6-69.12-15.359-79.36,17.92c-7.68,23.041-33.28,35.841-56.32,30.72
                            c-51.2-12.8-120.32-79.36-133.12-133.12c-7.68-23.041,7.68-48.641,30.72-56.32c33.28-10.24,43.52-53.76,17.92-79.36l-71.68-71.68
                            c-20.48-17.92-51.2-17.92-69.12,0l-48.64,48.64c-48.64,51.2,5.12,186.88,125.44,307.2c120.32,120.32,256,176.641,307.2,125.44
                            l48.64-48.64C517.581,425.6,517.581,394.88,499.66,376.96z"/>
            </g>
        </g>
    </symbol>
    <symbol id="icon-header-clock" viewBox="0 0 512 512">
        <path d="m256 0c-141.164062 0-256 114.835938-256 256s114.835938 256 256 256 256-114.835938 256-256-114.835938-256-256-256zm121.75 388.414062c-4.160156 4.160157-9.621094 6.253907-15.082031 6.253907-5.460938 0-10.925781-2.09375-15.082031-6.253907l-106.667969-106.664062c-4.011719-3.988281-6.25-9.410156-6.25-15.082031v-138.667969c0-11.796875 9.554687-21.332031 21.332031-21.332031s21.332031 9.535156 21.332031 21.332031v129.835938l100.417969 100.414062c8.339844 8.34375 8.339844 21.824219 0 30.164062zm0 0"/>
    </symbol>
    <symbol id="icon-header-heart" viewBox="0 -28 512.00002 512">
        <path d="m471.382812 44.578125c-26.503906-28.746094-62.871093-44.578125-102.410156-44.578125-29.554687 0-56.621094 9.34375-80.449218 27.769531-12.023438 9.300781-22.917969 20.679688-32.523438 33.960938-9.601562-13.277344-20.5-24.660157-32.527344-33.960938-23.824218-18.425781-50.890625-27.769531-80.445312-27.769531-39.539063 0-75.910156 15.832031-102.414063 44.578125-26.1875 28.410156-40.613281 67.222656-40.613281 109.292969 0 43.300781 16.136719 82.9375 50.78125 124.742187 30.992188 37.394531 75.535156 75.355469 127.117188 119.3125 17.613281 15.011719 37.578124 32.027344 58.308593 50.152344 5.476563 4.796875 12.503907 7.4375 19.792969 7.4375 7.285156 0 14.316406-2.640625 19.785156-7.429687 20.730469-18.128907 40.707032-35.152344 58.328125-50.171876 51.574219-43.949218 96.117188-81.90625 127.109375-119.304687 34.644532-41.800781 50.777344-81.4375 50.777344-124.742187 0-42.066407-14.425781-80.878907-40.617188-109.289063zm0 0"/>
    </symbol>
    <symbol id="icon-header-user" viewBox="0 0 477.867 477.867">
        <g>
            <g>
                <path d="M385.246,332.305l-72.653-24.218c-1.738-0.584-3.559-0.883-5.393-0.888H170.667c-1.834,0.004-3.655,0.304-5.393,0.888
                            l-72.653,24.218C37.276,350.693-0.053,402.481,0,460.8c0,9.426,7.641,17.067,17.067,17.067H460.8
                            c9.426,0,17.067-7.641,17.067-17.067C477.92,402.481,440.591,350.693,385.246,332.305z"/>
            </g>
        </g>
        <g>
            <g>
                <path d="M238.933,0c-56.554,0-102.4,45.846-102.4,102.4v68.267c0.056,56.531,45.869,102.344,102.4,102.4
                            c56.531-0.056,102.344-45.869,102.4-102.4V102.4C341.333,45.846,295.487,0,238.933,0z"/>
            </g>
        </g>
    </symbol>
    <symbol id="icon-header-logout" viewBox="0 0 512 512">
        <g>
            <g>
                <path d="M255.15,468.625H63.787c-11.737,0-21.262-9.526-21.262-21.262V64.638c0-11.737,9.526-21.262,21.262-21.262H255.15
                            c11.758,0,21.262-9.504,21.262-21.262S266.908,0.85,255.15,0.85H63.787C28.619,0.85,0,29.47,0,64.638v382.724
                            c0,35.168,28.619,63.787,63.787,63.787H255.15c11.758,0,21.262-9.504,21.262-21.262
                            C276.412,478.129,266.908,468.625,255.15,468.625z"/>
            </g>
        </g>
        <g>
            <g>
                <path d="M505.664,240.861L376.388,113.286c-8.335-8.25-21.815-8.143-30.065,0.213s-8.165,21.815,0.213,30.065l92.385,91.173
                            H191.362c-11.758,0-21.262,9.504-21.262,21.262c0,11.758,9.504,21.263,21.262,21.263h247.559l-92.385,91.173
                            c-8.377,8.25-8.441,21.709-0.213,30.065c4.167,4.21,9.653,6.336,15.139,6.336c5.401,0,10.801-2.041,14.926-6.124l129.276-127.575
                            c4.04-3.997,6.336-9.441,6.336-15.139C512,250.302,509.725,244.88,505.664,240.861z"/>
            </g>
        </g>
    </symbol>
    <symbol id="icon-header-basket" viewBox="0 0 475.293 475.293">
        <path d="m475.293 178.235h-80.708l-84.791-141.32c-4.206-7.02-13.33-9.312-20.379-5.091-7.035 4.221-9.312 13.344-5.091 20.379l75.619 126.032h-244.592l75.619-126.033c4.221-7.035 1.944-16.158-5.091-20.379-7.064-4.221-16.158-1.929-20.379 5.091l-84.791 141.32h-80.709v29.706h32.237l37.734 201.283c3.945 21.076 22.366 36.364 43.805 36.364h247.742c21.438 0 39.859-15.288 43.79-36.349l37.747-201.298h32.239c-.001 0-.001-29.705-.001-29.705zm-99.184 225.535c-1.305 7.02-7.441 12.112-14.592 12.112h-247.741c-7.151 0-13.286-5.091-14.606-12.126l-36.719-195.816h350.392s-36.734 195.83-36.734 195.83z"/>
    </symbol>
    <svg id="icon-header-basket-mobile" viewBox="0 0 17 16.5">
        <path d="M3,15.5l2,1h7l2-1,3-9H0Z"/>
        <polygon points="15.72 8.5 1.28 8.5 6.13 0 7.87 0.99 4.72 6.5 12.28 6.5 9.13 0.99 10.87 0 15.72 8.5"/>
    </svg>
    <symbol id="icon-header-burger" viewBox="0 0 21 17">
        <path d="M19.500,10.000 L1.500,10.000 C0.672,10.000 -0.000,9.328 -0.000,8.500 C-0.000,7.672 0.672,7.000 1.500,7.000 L19.500,7.000 C20.328,7.000 21.000,7.672 21.000,8.500 C21.000,9.328 20.328,10.000 19.500,10.000 ZM19.500,3.000 L1.500,3.000 C0.672,3.000 -0.000,2.328 -0.000,1.500 C-0.000,0.672 0.672,-0.000 1.500,-0.000 L19.500,-0.000 C20.328,-0.000 21.000,0.672 21.000,1.500 C21.000,2.328 20.328,3.000 19.500,3.000 ZM1.500,14.000 L19.500,14.000 C20.328,14.000 21.000,14.672 21.000,15.500 C21.000,16.328 20.328,17.000 19.500,17.000 L1.500,17.000 C0.672,17.000 -0.000,16.328 -0.000,15.500 C-0.000,14.672 0.672,14.000 1.500,14.000 Z"/>
    </symbol>
    <symbol id="icon-header-help" viewBox="0 0 512 512">
        <path d="m512 346.5c0-63.535156-36.449219-120.238281-91.039062-147.820312-1.695313 121.820312-100.460938 220.585937-222.28125 222.28125 27.582031 54.589843 84.285156 91.039062 147.820312 91.039062 29.789062 0 58.757812-7.933594 84.210938-23.007812l80.566406 22.285156-22.285156-80.566406c15.074218-25.453126 23.007812-54.421876 23.007812-84.210938zm0 0"/>
        <path d="m391 195.5c0-107.800781-87.699219-195.5-195.5-195.5s-195.5 87.699219-195.5 195.5c0 35.132812 9.351562 69.339844 27.109375 99.371094l-26.390625 95.40625 95.410156-26.386719c30.03125 17.757813 64.238282 27.109375 99.371094 27.109375 107.800781 0 195.5-87.699219 195.5-195.5zm-225.5-45.5h-30c0-33.085938 26.914062-60 60-60s60 26.914062 60 60c0 16.792969-7.109375 32.933594-19.511719 44.277344l-25.488281 23.328125v23.394531h-30v-36.605469l35.234375-32.25c6.296875-5.761719 9.765625-13.625 9.765625-22.144531 0-16.542969-13.457031-30-30-30s-30 13.457031-30 30zm15 121h30v30h-30zm0 0"/>
    </symbol>
    <symbol id="icon-header-truck" viewBox="0 0 612 612">
        <g>
            <path d="M21.474,377.522V117.138c0-14.469,11.729-26.199,26.199-26.199h260.25c14.469,0,26.198,11.73,26.198,26.199v260.385
                    c0,4.823-3.909,8.733-8.733,8.733H30.207C25.383,386.256,21.474,382.346,21.474,377.522z M231.634,466.724
                    c0,30.01-24.329,54.338-54.338,54.338c-30.009,0-54.338-24.328-54.338-54.338c0-30.011,24.329-54.338,54.338-54.338
                    C207.305,412.386,231.634,436.713,231.634,466.724z M204.464,466.724c0-15.005-12.164-27.169-27.169-27.169
                    s-27.17,12.164-27.17,27.169s12.165,27.17,27.17,27.17S204.464,481.729,204.464,466.724z M130.495,412.385H8.733
                    c-4.823,0-8.733,3.91-8.733,8.733v26.495c0,4.823,3.91,8.733,8.733,8.733h97.598C108.879,438.862,117.704,423.418,130.495,412.385z
                        M515.938,466.724c0,30.01-24.329,54.338-54.338,54.338c-30.01,0-54.338-24.328-54.338-54.338
                    c0-30.011,24.328-54.338,54.338-54.338C491.609,412.385,515.938,436.713,515.938,466.724z M488.77,466.724
                    c0-15.005-12.165-27.169-27.17-27.169c-15.006,0-27.169,12.164-27.169,27.169s12.164,27.17,27.169,27.17
                    S488.77,481.729,488.77,466.724z M612,421.118v26.495c0,4.823-3.91,8.733-8.733,8.733h-70.704
                    c-5.057-34.683-34.906-61.427-70.961-61.427c-36.062,0-65.912,26.745-70.969,61.427H248.261
                    c-2.549-17.483-11.373-32.928-24.164-43.961h134.994V162.594c0-9.646,7.82-17.466,17.466-17.466h82.445
                    c23.214,0,44.911,11.531,57.9,30.77l53.15,78.721c7.796,11.547,11.962,25.161,11.962,39.094v118.672h21.253
                    C608.09,412.385,612,416.295,612,421.118z M523.408,256.635l-42.501-60.393c-1.636-2.324-4.3-3.707-7.142-3.707H407.47
                    c-4.822,0-8.733,3.91-8.733,8.733v60.393c0,4.824,3.91,8.733,8.733,8.733h108.798C523.342,270.394,527.48,262.421,523.408,256.635z
                    "/>
        </g>
    </symbol>
    <symbol id="icon-header-pharmacy" viewBox="0 0 512.036 512.036">
        <g>
            <g>
                <path d="M503.485,196.551L268.818,25.885c-8.533-6.4-17.067-6.4-25.6,0L8.551,196.551c-17.067,10.667-6.4,38.4,12.8,38.4h42.667
                            v234.667c0,12.8,8.533,21.333,21.333,21.333h341.333c12.8,0,21.333-8.533,21.333-21.333V234.951h42.667
                            C509.885,234.951,520.551,207.218,503.485,196.551z M256.018,448.285c-70.4,0-128-57.6-128-128s57.6-128,128-128s128,57.6,128,128
                            S326.418,448.285,256.018,448.285z"/>
            </g>
        </g>
        <g>
            <g>
                <polygon points="288.018,288.285 288.018,224.285 224.018,224.285 224.018,288.285 160.018,288.285 160.018,352.285
                            224.018,352.285 224.018,416.285 288.018,416.285 288.018,352.285 352.018,352.285 352.018,288.285 		"/>
            </g>
        </g>
    </symbol>
    <symbol id="icon-header-contact" viewBox="0 0 511.882 511.882">
        <g>
            <g>
                <g>
                    <path d="M389.898,430.449l-86.29-57.527c-3.86-2.548-9.03-1.709-11.886,1.929l-25.125,32.302
                                        c-8.143,10.612-22.839,13.641-34.514,7.113l-4.645-2.551c-16.759-9.143-37.623-20.517-79.04-61.934
                                        c-41.417-41.417-52.8-62.281-61.934-79.049l-2.56-4.645c-6.527-11.672-3.498-26.366,7.113-34.505l32.293-25.134
                                        c3.642-2.854,4.482-8.026,1.929-11.886l-57.518-86.299c-2.616-3.916-7.843-5.094-11.886-2.679l-36.105,21.65
                                        c-7.746,4.521-13.443,11.863-15.899,20.489c-11.858,43.182-1.883,118.793,112.96,233.646s190.437,124.846,233.655,112.978
                                        c8.628-2.459,15.969-8.159,20.489-15.909l21.641-36.105C394.997,438.293,393.818,433.063,389.898,430.449z"/>
                    <path d="M510.425,15.156c-0.946-0.946-2.234-1.471-3.572-1.456H123.767c-1.338-0.015-2.626,0.51-3.572,1.456
                                    c-0.946,0.946-1.471,2.234-1.456,3.572V151.83l21.723,32.585c7.835,11.838,5.26,27.708-5.915,36.462l-32.265,25.134
                                    c-3.454,2.62-4.458,7.38-2.359,11.173l2.633,4.8c8.395,15.966,18.635,30.892,30.51,44.471h373.787
                                    c2.743,0.02,4.988-2.176,5.029-4.919V18.728C511.897,17.39,511.372,16.102,510.425,15.156z M250.661,181.434v-0.046
                                    l-93.659,100.343c-3.444,3.694-9.23,3.896-12.923,0.453c-3.694-3.444-3.896-9.23-0.453-12.923l93.659-100.297
                                    c3.444-3.694,9.23-3.896,12.923-0.453C253.902,171.955,254.105,177.741,250.661,181.434z M315.31,174.23
                                    c-6.589,0.03-13.009-2.088-18.286-6.034L144.211,52.319c-4.024-3.065-4.802-8.812-1.737-12.837
                                    c3.065-4.024,8.812-4.802,12.837-1.737l152.75,115.877c4.323,3.141,10.177,3.141,14.501,0L475.356,37.745
                                    c4.024-3.052,9.761-2.264,12.814,1.76s2.264,9.761-1.76,12.814L333.596,168.196C328.319,172.142,321.9,174.26,315.31,174.23z
                                    M487.123,282.18c-1.773,1.656-4.132,2.539-6.557,2.455c-2.425-0.084-4.717-1.128-6.371-2.903l-93.65-100.343
                                    c-3.182-3.729-2.856-9.304,0.737-12.637c3.594-3.334,9.177-3.24,12.657,0.212l93.632,100.297
                                    C491.013,272.952,490.813,278.735,487.123,282.18z"/>
                </g>
            </g>
        </g>
    </symbol>
    <symbol id="icon-header-sale" viewBox="0 0 512.003 512.003">
        <g>
            <g>
                <path d="M477.958,262.633c-2.06-4.215-2.06-9.049,0-13.263l19.096-39.065c10.632-21.751,2.208-47.676-19.178-59.023l-38.41-20.38
                            c-4.144-2.198-6.985-6.11-7.796-10.729l-7.512-42.829c-4.183-23.846-26.241-39.87-50.208-36.479l-43.053,6.09
                            c-4.647,0.656-9.242-0.838-12.613-4.099l-31.251-30.232c-17.401-16.834-44.661-16.835-62.061,0L193.72,42.859
                            c-3.372,3.262-7.967,4.753-12.613,4.099l-43.053-6.09c-23.975-3.393-46.025,12.633-50.208,36.479l-7.512,42.827
                            c-0.811,4.62-3.652,8.531-7.795,10.73l-38.41,20.38c-21.386,11.346-29.81,37.273-19.178,59.024l19.095,39.064
                            c2.06,4.215,2.06,9.049,0,13.263l-19.096,39.064c-10.632,21.751-2.208,47.676,19.178,59.023l38.41,20.38
                            c4.144,2.198,6.985,6.11,7.796,10.729l7.512,42.829c3.808,21.708,22.422,36.932,43.815,36.93c2.107,0,4.245-0.148,6.394-0.452
                            l43.053-6.09c4.643-0.659,9.241,0.838,12.613,4.099l31.251,30.232c8.702,8.418,19.864,12.626,31.03,12.625
                            c11.163-0.001,22.332-4.209,31.03-12.625l31.252-30.232c3.372-3.261,7.968-4.751,12.613-4.099l43.053,6.09
                            c23.978,3.392,46.025-12.633,50.208-36.479l7.513-42.827c0.811-4.62,3.652-8.531,7.795-10.73l38.41-20.38
                            c21.386-11.346,29.81-37.273,19.178-59.024L477.958,262.633z M196.941,123.116c29.852,0,54.139,24.287,54.139,54.139
                            s-24.287,54.139-54.139,54.139s-54.139-24.287-54.139-54.139S167.089,123.116,196.941,123.116z M168.997,363.886
                            c-2.883,2.883-6.662,4.325-10.44,4.325s-7.558-1.441-10.44-4.325c-5.766-5.766-5.766-15.115,0-20.881l194.889-194.889
                            c5.765-5.766,15.115-5.766,20.881,0c5.766,5.766,5.766,15.115,0,20.881L168.997,363.886z M315.061,388.888
                            c-29.852,0-54.139-24.287-54.139-54.139s24.287-54.139,54.139-54.139c29.852,0,54.139,24.287,54.139,54.139
                            S344.913,388.888,315.061,388.888z"/>
            </g>
        </g>
        <g>
            <g>
                <path d="M315.061,310.141c-13.569,0-24.609,11.039-24.609,24.608s11.039,24.608,24.609,24.608
                            c13.569,0,24.608-11.039,24.608-24.608S328.63,310.141,315.061,310.141z"/>
            </g>
        </g>
        <g>
            <g>
                <path d="M196.941,152.646c-13.569,0-24.608,11.039-24.608,24.608c0,13.569,11.039,24.609,24.608,24.609
                            c13.569,0,24.609-11.039,24.609-24.609C221.549,163.686,210.51,152.646,196.941,152.646z"/>
            </g>
        </g>
    </symbol>
    <symbol id="icon-search-close" viewBox="0 0 22 22">
        <path d="M21.987,19.257l-2.73,2.73L11,13.73,2.73,22,0,19.27,8.27,11,0,2.73,2.73,0,11,8.27l8.257-8.257,2.73,2.73L13.73,11Z"/>
    </symbol>
</svg>