<svg xmlns="http://www.w3.org/2000/svg" style="display: none;">
    <symbol id="icon-notification" viewBox="-43 0 512 512">
        <path d="m413.417969 360.8125c-32.253907-27.265625-50.75-67.117188-50.75-109.335938v-59.476562c0-75.070312-55.765625-137.214844-128-147.625v-23.042969c0-11.796875-9.558594-21.332031-21.335938-21.332031-11.773437 0-21.332031 9.535156-21.332031 21.332031v23.042969c-72.257812 10.410156-128 72.554688-128 147.625v59.476562c0 42.21875-18.496094 82.070313-50.945312 109.503907-8.296876 7.105469-13.054688 17.429687-13.054688 28.351562 0 20.589844 16.746094 37.335938 37.332031 37.335938h352c20.589844 0 37.335938-16.746094 37.335938-37.335938 0-10.921875-4.757813-21.246093-13.25-28.519531zm0 0"/>
        <path d="m213.332031 512c38.636719 0 70.957031-27.542969 78.378907-64h-156.757813c7.425781 36.457031 39.746094 64 78.378906 64zm0 0"/>
    </symbol>
    <symbol id="icon-header-phone" viewBox="0 0 513.64 513.64">
        <g>
            <g>
                <path d="M499.66,376.96l-71.68-71.68c-25.6-25.6-69.12-15.359-79.36,17.92c-7.68,23.041-33.28,35.841-56.32,30.72
                            c-51.2-12.8-120.32-79.36-133.12-133.12c-7.68-23.041,7.68-48.641,30.72-56.32c33.28-10.24,43.52-53.76,17.92-79.36l-71.68-71.68
                            c-20.48-17.92-51.2-17.92-69.12,0l-48.64,48.64c-48.64,51.2,5.12,186.88,125.44,307.2c120.32,120.32,256,176.641,307.2,125.44
                            l48.64-48.64C517.581,425.6,517.581,394.88,499.66,376.96z"/>
            </g>
        </g>
    </symbol>
    <symbol id="icon-header-clock" viewBox="0 0 512 512">
        <path d="m256 0c-141.164062 0-256 114.835938-256 256s114.835938 256 256 256 256-114.835938 256-256-114.835938-256-256-256zm121.75 388.414062c-4.160156 4.160157-9.621094 6.253907-15.082031 6.253907-5.460938 0-10.925781-2.09375-15.082031-6.253907l-106.667969-106.664062c-4.011719-3.988281-6.25-9.410156-6.25-15.082031v-138.667969c0-11.796875 9.554687-21.332031 21.332031-21.332031s21.332031 9.535156 21.332031 21.332031v129.835938l100.417969 100.414062c8.339844 8.34375 8.339844 21.824219 0 30.164062zm0 0"/>
    </symbol>
    <symbol id="icon-header-heart" viewBox="0 -28 512.00002 512">
        <path d="m471.382812 44.578125c-26.503906-28.746094-62.871093-44.578125-102.410156-44.578125-29.554687 0-56.621094 9.34375-80.449218 27.769531-12.023438 9.300781-22.917969 20.679688-32.523438 33.960938-9.601562-13.277344-20.5-24.660157-32.527344-33.960938-23.824218-18.425781-50.890625-27.769531-80.445312-27.769531-39.539063 0-75.910156 15.832031-102.414063 44.578125-26.1875 28.410156-40.613281 67.222656-40.613281 109.292969 0 43.300781 16.136719 82.9375 50.78125 124.742187 30.992188 37.394531 75.535156 75.355469 127.117188 119.3125 17.613281 15.011719 37.578124 32.027344 58.308593 50.152344 5.476563 4.796875 12.503907 7.4375 19.792969 7.4375 7.285156 0 14.316406-2.640625 19.785156-7.429687 20.730469-18.128907 40.707032-35.152344 58.328125-50.171876 51.574219-43.949218 96.117188-81.90625 127.109375-119.304687 34.644532-41.800781 50.777344-81.4375 50.777344-124.742187 0-42.066407-14.425781-80.878907-40.617188-109.289063zm0 0"/>
    </symbol>
    <symbol id="icon-header-user" viewBox="0 0 477.867 477.867">
        <g>
            <g>
                <path d="M385.246,332.305l-72.653-24.218c-1.738-0.584-3.559-0.883-5.393-0.888H170.667c-1.834,0.004-3.655,0.304-5.393,0.888
                            l-72.653,24.218C37.276,350.693-0.053,402.481,0,460.8c0,9.426,7.641,17.067,17.067,17.067H460.8
                            c9.426,0,17.067-7.641,17.067-17.067C477.92,402.481,440.591,350.693,385.246,332.305z"/>
            </g>
        </g>
        <g>
            <g>
                <path d="M238.933,0c-56.554,0-102.4,45.846-102.4,102.4v68.267c0.056,56.531,45.869,102.344,102.4,102.4
                            c56.531-0.056,102.344-45.869,102.4-102.4V102.4C341.333,45.846,295.487,0,238.933,0z"/>
            </g>
        </g>
    </symbol>
    <symbol id="icon-header-logout" viewBox="0 0 512 512">
        <g>
            <g>
                <path d="M255.15,468.625H63.787c-11.737,0-21.262-9.526-21.262-21.262V64.638c0-11.737,9.526-21.262,21.262-21.262H255.15
                            c11.758,0,21.262-9.504,21.262-21.262S266.908,0.85,255.15,0.85H63.787C28.619,0.85,0,29.47,0,64.638v382.724
                            c0,35.168,28.619,63.787,63.787,63.787H255.15c11.758,0,21.262-9.504,21.262-21.262
                            C276.412,478.129,266.908,468.625,255.15,468.625z"/>
            </g>
        </g>
        <g>
            <g>
                <path d="M505.664,240.861L376.388,113.286c-8.335-8.25-21.815-8.143-30.065,0.213s-8.165,21.815,0.213,30.065l92.385,91.173
                            H191.362c-11.758,0-21.262,9.504-21.262,21.262c0,11.758,9.504,21.263,21.262,21.263h247.559l-92.385,91.173
                            c-8.377,8.25-8.441,21.709-0.213,30.065c4.167,4.21,9.653,6.336,15.139,6.336c5.401,0,10.801-2.041,14.926-6.124l129.276-127.575
                            c4.04-3.997,6.336-9.441,6.336-15.139C512,250.302,509.725,244.88,505.664,240.861z"/>
            </g>
        </g>
    </symbol>
    <symbol id="icon-header-basket" viewBox="0 0 475.293 475.293">
        <path d="m475.293 178.235h-80.708l-84.791-141.32c-4.206-7.02-13.33-9.312-20.379-5.091-7.035 4.221-9.312 13.344-5.091 20.379l75.619 126.032h-244.592l75.619-126.033c4.221-7.035 1.944-16.158-5.091-20.379-7.064-4.221-16.158-1.929-20.379 5.091l-84.791 141.32h-80.709v29.706h32.237l37.734 201.283c3.945 21.076 22.366 36.364 43.805 36.364h247.742c21.438 0 39.859-15.288 43.79-36.349l37.747-201.298h32.239c-.001 0-.001-29.705-.001-29.705zm-99.184 225.535c-1.305 7.02-7.441 12.112-14.592 12.112h-247.741c-7.151 0-13.286-5.091-14.606-12.126l-36.719-195.816h350.392s-36.734 195.83-36.734 195.83z"/>
    </symbol>
    <svg id="icon-header-basket-mobile" viewBox="0 0 17 16.5">
        <path d="M3,15.5l2,1h7l2-1,3-9H0Z"/>
        <polygon points="15.72 8.5 1.28 8.5 6.13 0 7.87 0.99 4.72 6.5 12.28 6.5 9.13 0.99 10.87 0 15.72 8.5"/>
    </svg>
    <symbol id="icon-header-burger" viewBox="0 0 21 17">
        <path d="M19.500,10.000 L1.500,10.000 C0.672,10.000 -0.000,9.328 -0.000,8.500 C-0.000,7.672 0.672,7.000 1.500,7.000 L19.500,7.000 C20.328,7.000 21.000,7.672 21.000,8.500 C21.000,9.328 20.328,10.000 19.500,10.000 ZM19.500,3.000 L1.500,3.000 C0.672,3.000 -0.000,2.328 -0.000,1.500 C-0.000,0.672 0.672,-0.000 1.500,-0.000 L19.500,-0.000 C20.328,-0.000 21.000,0.672 21.000,1.500 C21.000,2.328 20.328,3.000 19.500,3.000 ZM1.500,14.000 L19.500,14.000 C20.328,14.000 21.000,14.672 21.000,15.500 C21.000,16.328 20.328,17.000 19.500,17.000 L1.500,17.000 C0.672,17.000 -0.000,16.328 -0.000,15.500 C-0.000,14.672 0.672,14.000 1.500,14.000 Z"/>
    </symbol>
</svg>