<svg xmlns="http://www.w3.org/2000/svg" width="200" height="250" viewBox="0 0 200 250">
  <defs>
    <style>
      .cls-1 {
        fill: #fff;
      }

      .cls-1, .cls-10, .cls-12, .cls-13, .cls-14, .cls-15, .cls-17, .cls-2, .cls-3, .cls-4, .cls-5, .cls-6, .cls-7, .cls-8, .cls-9 {
        fill-rule: evenodd;
      }

      .cls-2 {
        fill: #888;
      }

      .cls-3 {
        fill: #333;
      }

      .cls-4 {
        fill: #1d1a1a;
      }

      .cls-5 {
        fill: #e62222;
      }

      .cls-6 {
        fill: #ed1f24;
      }

      .cls-11, .cls-7 {
        fill: #8c8c8c;
      }

      .cls-8 {
        fill: #8f8d8d;
      }

      .cls-9 {
        fill: #37ac09;
      }

      .cls-10 {
        fill: #fbfbfb;
      }

      .cls-12, .cls-13, .cls-15, .cls-16, .cls-17, .cls-18 {
        fill: none;
        stroke-linecap: round;
        stroke-linejoin: round;
      }

      .cls-12, .cls-15, .cls-18 {
        stroke: #1d1a1a;
      }

      .cls-12 {
        stroke-width: 1.1px;
        opacity: 0.5;
      }

      .cls-13 {
        stroke: #fbfbfb;
      }

      .cls-13, .cls-15, .cls-16, .cls-17, .cls-18 {
        stroke-width: 2px;
      }

      .cls-16, .cls-17 {
        stroke: #fff;
      }
    </style>
  </defs>
  <path id="Compare" class="cls-1" d="M31,53h0a1,1,0,0,1,1,1V65H30V54A1,1,0,0,1,31,53Zm4,5h0a1,1,0,0,1,1,1v6H34V59A1,1,0,0,1,35,58Zm4-2h0a1,1,0,0,1,1,1v8H38V57A1,1,0,0,1,39,56ZM27,60a1,1,0,0,1,1,1v4H26V61A1,1,0,0,1,27,60Z"/>
  <path id="Compare-2" data-name="Compare" class="cls-2" d="M31,25h0a1,1,0,0,1,1,1V37H30V26A1,1,0,0,1,31,25Zm4,5h0a1,1,0,0,1,1,1v6H34V31A1,1,0,0,1,35,30Zm4-2h0a1,1,0,0,1,1,1v8H38V29A1,1,0,0,1,39,28ZM27,32a1,1,0,0,1,1,1v4H26V33A1,1,0,0,1,27,32Z"/>
  <path id="Compare-3" data-name="Compare" class="cls-3" d="M31,81h0a1,1,0,0,1,1,1V93H30V82A1,1,0,0,1,31,81Zm4,5h0a1,1,0,0,1,1,1v6H34V87A1,1,0,0,1,35,86Zm4-2h0a1,1,0,0,1,1,1v8H38V85A1,1,0,0,1,39,84ZM27,88a1,1,0,0,1,1,1v4H26V89A1,1,0,0,1,27,88Z"/>
  <path id="Compare-4" data-name="Compare" class="cls-4" d="M105,183h0a1,1,0,0,1,1,1v11h-2V184A1,1,0,0,1,105,183Zm-4-3h0a1,1,0,0,1,1,1v14h-2V181A1,1,0,0,1,101,180Zm-4,7h0a1,1,0,0,1,1,1v7H96v-7A1,1,0,0,1,97,187Zm12,2a1,1,0,0,1,1,1v5h-2v-5A1,1,0,0,1,109,189Z"/>
  <path id="Wishlist" class="cls-2" d="M15.968,31.638l0.027,0.014-5.882,5.795H9.88L4.171,31.822c-0.051-.05-0.1-0.1-0.153-0.151l-0.049-.048,0.008,0a4.016,4.016,0,0,1-1.015-2.676A3.854,3.854,0,0,1,6.723,25a3.727,3.727,0,0,1,3.292,2.07A3.7,3.7,0,0,1,13.295,25a3.828,3.828,0,0,1,3.736,3.913A3.99,3.99,0,0,1,15.968,31.638Zm-2.755-4.656c-1.894,0-3.244,3.261-3.244,3.261S8.545,26.983,6.852,27c-1.111.01-1.879,0.409-1.881,1.976,0,1.032,5,5.876,5,5.876s4.952-4.722,4.994-5.791C15.006,27.958,14.664,26.983,13.213,26.983Z"/>
  <path id="Wishlist-2" data-name="Wishlist" class="cls-1" d="M15.968,59.638l0.027,0.014-5.882,5.795H9.88L4.171,59.822c-0.051-.05-0.1-0.1-0.153-0.151l-0.049-.048,0.008,0a4.016,4.016,0,0,1-1.015-2.676A3.854,3.854,0,0,1,6.723,53a3.727,3.727,0,0,1,3.292,2.07A3.7,3.7,0,0,1,13.295,53a3.828,3.828,0,0,1,3.736,3.913A3.991,3.991,0,0,1,15.968,59.638Zm-2.755-4.656c-1.894,0-3.244,3.261-3.244,3.261S8.545,54.983,6.852,55c-1.111.01-1.879,0.409-1.881,1.976,0,1.032,5,5.876,5,5.876s4.952-4.722,4.994-5.791C15.006,55.958,14.664,54.983,13.213,54.983Z"/>
  <path id="Wishlist-3" data-name="Wishlist" class="cls-3" d="M15.968,87.638l0.027,0.014-5.882,5.795H9.88L4.171,87.822c-0.051-.05-0.1-0.1-0.153-0.151l-0.049-.048,0.008,0a4.016,4.016,0,0,1-1.015-2.676A3.854,3.854,0,0,1,6.723,81a3.727,3.727,0,0,1,3.292,2.071A3.7,3.7,0,0,1,13.295,81a3.828,3.828,0,0,1,3.736,3.913A3.99,3.99,0,0,1,15.968,87.638Zm-2.755-4.656c-1.894,0-3.244,3.261-3.244,3.261S8.545,82.983,6.852,83c-1.111.01-1.879,0.409-1.881,1.976,0,1.032,5,5.876,5,5.876s4.952-4.723,4.994-5.791C15.006,83.958,14.664,82.983,13.213,82.983Z"/>
  <path id="Kupon" class="cls-5" d="M110.7,94.7a1.039,1.039,0,0,1-1.469,0l-2.118-2.117A3.461,3.461,0,0,1,105.5,93a3.5,3.5,0,1,1,3.5-3.5,3.464,3.464,0,0,1-.413,1.617l2.117,2.117A1.039,1.039,0,0,1,110.7,94.7ZM105.5,88a1.5,1.5,0,1,0,1.5,1.5A1.5,1.5,0,0,0,105.5,88Z"/>
  <path id="Shape" class="cls-2" d="M134.7,95.7a1.039,1.039,0,0,1-1.469,0l-2.516-2.516a5.019,5.019,0,1,1,1.469-1.469l2.516,2.516A1.039,1.039,0,0,1,134.7,95.7ZM128,86a3,3,0,1,0,3,3A3,3,0,0,0,128,86Z"/>
  <path id="Metro" class="cls-6" d="M13,245H9v-1H9.467l-0.651-1.985-1.778,3.016L5.26,242.015,4.61,244H5v1H1v-1H1.863l2.83-6.974,2.345,4.291,2.345-4.291L12.214,244H13v1Z"/>
  <path class="cls-7" d="M126,214h-4v4h-2v-4h-4v-2h4v-4h2v4h4v2Z"/>
  <path id="Cart" class="cls-8" d="M50.927,209.639a0.962,0.962,0,0,1,.067.333c0,0.01.006,0.018,0.006,0.028s-0.007.022-.007,0.034a0.952,0.952,0,0,1,0,.181L49.9,215.1c0,0.02-.018.035-0.024,0.054a0.988,0.988,0,0,1-.97.851H39a1.16,1.16,0,0,1-1.046-.948L37.048,208H35a1,1,0,0,1,0-2h2.82a0.006,0.006,0,0,1,0,0h0.082c0.025,0,.046.012,0.07,0.014a0.991,0.991,0,0,1,.318.064l0,0a0.988,0.988,0,0,1,.623.808L39.192,209H50c0.033,0,.061.016,0.093,0.019a0.8,0.8,0,0,1,.139,0,0.793,0.793,0,0,1,.1.046,0.908,0.908,0,0,1,.113.05,0.952,0.952,0,0,1,.235.158c0.017,0.016.032,0.033,0.048,0.05a0.984,0.984,0,0,1,.179.266C50.916,209.607,50.921,209.623,50.927,209.639ZM39.835,214H48.1l0.67-3H39.449Zm0.669,3.012A2.488,2.488,0,1,1,38,219.5,2.5,2.5,0,0,1,40.5,217.012Zm0,3.063a0.575,0.575,0,1,0-.579-0.575A0.577,0.577,0,0,0,40.5,220.075Zm7-3.079a2.5,2.5,0,1,1-2.5,2.5A2.5,2.5,0,0,1,47.5,217Zm0,3.079a0.575,0.575,0,1,0-.579-0.575A0.577,0.577,0,0,0,47.5,220.075Z"/>
  <path id="Cart-2" data-name="Cart" class="cls-4" d="M166.927,183.639a0.955,0.955,0,0,1,.067.333A0.28,0.28,0,0,1,167,184c0,0.012-.007.022-0.007,0.034a0.913,0.913,0,0,1,0,.181L165.9,189.1a0.522,0.522,0,0,1-.024.054,0.987,0.987,0,0,1-.97.851H155a1.161,1.161,0,0,1-1.046-.948L153.048,182H151a1,1,0,0,1,0-2h2.82a0.005,0.005,0,0,1,0,0h0.082c0.025,0,.046.012,0.071,0.014a0.994,0.994,0,0,1,.318.064l0,0a0.989,0.989,0,0,1,.624.808L155.192,183H166c0.033,0,.061.016,0.093,0.019a0.321,0.321,0,0,1,.242.049,0.933,0.933,0,0,1,.112.05,0.95,0.95,0,0,1,.235.158c0.017,0.016.032,0.033,0.048,0.05a1,1,0,0,1,.179.266C166.916,183.607,166.921,183.623,166.927,183.639ZM155.835,188h8.26l0.67-3h-9.316Zm0.669,3.012A2.488,2.488,0,1,1,154,193.5,2.5,2.5,0,0,1,156.5,191.012Zm0,3.063a0.575,0.575,0,1,0-.579-0.575A0.577,0.577,0,0,0,156.5,194.075Zm7-3.079a2.5,2.5,0,1,1-2.5,2.5A2.5,2.5,0,0,1,163.5,191Zm0,3.079a0.575,0.575,0,1,0-.579-0.575A0.577,0.577,0,0,0,163.5,194.075Z"/>
  <path id="Cart-3" data-name="Cart" class="cls-1" d="M184.927,161.639a0.955,0.955,0,0,1,.067.333A0.28,0.28,0,0,1,185,162c0,0.012-.007.022-0.007,0.034a0.913,0.913,0,0,1,0,.181L183.9,167.1a0.522,0.522,0,0,1-.024.054,0.987,0.987,0,0,1-.97.851H173a1.161,1.161,0,0,1-1.046-.948L171.048,160H169a1,1,0,0,1,0-2h2.82a0.005,0.005,0,0,1,0,0h0.082c0.025,0,.046.012,0.071,0.014a0.994,0.994,0,0,1,.318.064l0,0a0.989,0.989,0,0,1,.624.808L173.192,161H184c0.033,0,.061.016,0.093,0.019a0.321,0.321,0,0,1,.242.049,0.933,0.933,0,0,1,.112.05,0.95,0.95,0,0,1,.235.158c0.017,0.016.032,0.033,0.048,0.05a1,1,0,0,1,.179.266C184.916,161.607,184.921,161.623,184.927,161.639ZM173.835,166h8.26l0.67-3h-9.316Zm0.669,3.012A2.488,2.488,0,1,1,172,171.5,2.5,2.5,0,0,1,174.5,169.012Zm0,3.063a0.575,0.575,0,1,0-.579-0.575A0.577,0.577,0,0,0,174.5,172.075Zm7-3.079a2.5,2.5,0,1,1-2.5,2.5A2.5,2.5,0,0,1,181.5,169Zm0,3.079a0.575,0.575,0,1,0-.579-0.575A0.577,0.577,0,0,0,181.5,172.075Z"/>
  <path id="Cart-4" data-name="Cart" class="cls-1" d="M168,144h2v8h-2v-8Zm4-7h2v15h-2V137Zm4,3h2v12h-2V140Zm4,6h2v6h-2v-6Z"/>
  <path id="Check" class="cls-1" d="M47.663,5.9l-6.321,6.761a1.074,1.074,0,0,1-1.543,0L36.3,8.906a1.134,1.134,0,0,1,0-1.579,1.074,1.074,0,0,1,1.543,0l2.732,2.925,5.549-5.935a1.073,1.073,0,0,1,1.543,0A1.134,1.134,0,0,1,47.663,5.9Z"/>
  <path id="Check-2" data-name="Check" class="cls-1" d="M58.72,8.475l-5.142,5.259a0.926,0.926,0,0,1-.659.251,0.946,0.946,0,0,1-.175-0.033,0.922,0.922,0,0,1-.155-0.031A0.943,0.943,0,0,1,52.23,13.7l-2.968-3a1.013,1.013,0,0,1,0-1.4,0.944,0.944,0,0,1,1.362,0l2.419,2.445,4.39-4.489a0.939,0.939,0,0,1,1.286,0A0.84,0.84,0,0,1,58.72,8.475Z"/>
  <path id="Check-3" data-name="Check" class="cls-5" d="M14.691,5.667L8.9,11.724a1,1,0,0,1-1.414,0L4.272,8.7A1,1,0,1,1,5.686,7.286L8.154,9.609l5.124-5.355A1,1,0,1,1,14.691,5.667Z"/>
  <path id="Check-4" data-name="Check" class="cls-9" d="M29.691,5.667L23.9,11.724a1,1,0,0,1-1.414,0L19.272,8.7a1,1,0,0,1,1.414-1.414l2.467,2.323,5.124-5.355A1,1,0,0,1,29.691,5.667Z"/>
  <path class="cls-4" d="M80.668,192.668a1.086,1.086,0,0,1-1.534,0l-2.878-2.878a6.532,6.532,0,1,1,1.534-1.534l2.878,2.878A1.085,1.085,0,0,1,80.668,192.668ZM72.5,180a4.5,4.5,0,1,0,4.5,4.5A4.5,4.5,0,0,0,72.5,180Z"/>
  <path class="cls-1" d="M158.668,151.668a1.086,1.086,0,0,1-1.534,0l-2.878-2.878a6.531,6.531,0,1,1,1.534-1.534l2.878,2.878A1.086,1.086,0,0,1,158.668,151.668ZM150.5,139a4.5,4.5,0,1,0,4.5,4.5A4.5,4.5,0,0,0,150.5,139Z"/>
  <path class="cls-10" d="M196,224h-5v5a1,1,0,0,1-2,0v-5h-5a1,1,0,0,1,0-2h5v-5a1,1,0,0,1,2,0v5h5A1,1,0,0,1,196,224Z"/>
  <path class="cls-4" d="M194.659,187.851l-4.632,4.632,4.632,4.632a1.092,1.092,0,0,1-1.544,1.544l-4.632-4.632-4.632,4.632a1.092,1.092,0,0,1-1.545-1.544l4.633-4.632-4.633-4.632a1.092,1.092,0,0,1,1.545-1.545l4.632,4.633,4.632-4.633A1.092,1.092,0,0,1,194.659,187.851Z"/>
  <rect class="cls-11" x="158" y="209" width="10" height="2"/>
  <rect class="cls-11" x="158" y="213" width="10" height="2"/>
  <path id="X" class="cls-1" d="M142.414,213l3.3,3.3a1,1,0,0,1-1.414,1.414l-3.3-3.3-3.3,3.3a1,1,0,0,1-1.415-1.414l3.3-3.3-3.3-3.3a1,1,0,0,1,1.415-1.415l3.3,3.3,3.3-3.3a1,1,0,0,1,1.414,1.415Z"/>
  <path class="cls-12" d="M27.522,237.513l-3.653,3.544,3.518,3.392"/>
  <path class="cls-1" d="M56,166H5a3,3,0,0,1-3-3V132a3,3,0,0,1,3-3H18.849a12.456,12.456,0,0,0,.989,2H5a1,1,0,0,0-1,1v31a1,1,0,0,0,1,1H56a1,1,0,0,0,1-1V132a1,1,0,0,0-1-1H41.162a12.456,12.456,0,0,0,.989-2H56a3,3,0,0,1,3,3v31A3,3,0,0,1,56,166Z"/>
  <path class="cls-13" d="M3.985,163.716s12.178-9.9,20.006-16.393m33,16.489s-19.016-15.612-20.2-16.6"/>
  <path class="cls-13" d="M4.016,131.707l26.429,20.52,26.546-20.618"/>
  <path id="circle" class="cls-13" d="M30.5,112.028A12.472,12.472,0,1,0,43,124.5a12.486,12.486,0,0,0-12.5-12.472h0Z"/>
  <path id="Check-5" data-name="Check" class="cls-1" d="M37.8,120.559l-9.028,9.091a0.872,0.872,0,0,1-.052.078,1,1,0,0,1-1.414,0l-3.95-3.95a1,1,0,1,1,1.414-1.414L28,127.591l8.388-8.446A1,1,0,0,1,37.8,120.559Z"/>
  <path id="Refresh" class="cls-1" d="M77,88V86h1.21a4.444,4.444,0,0,0-7.219-.285l-1.748-1.009A6.477,6.477,0,0,1,74.5,82,6.4,6.4,0,0,1,80,85.135V83h2v5H77Zm-5,3H70.792a4.46,4.46,0,0,0,6.864.7l1.778,0.984A6.4,6.4,0,0,1,69,91.861V94H67V89h5v2Z"/>
  <path id="Phone" class="cls-14" d="M35.639,187.918l1.967,0.486a0.522,0.522,0,0,1,.431.613l-0.013.374a0.861,0.861,0,0,1-.326.718,3.944,3.944,0,0,1-1.138.8c-1.192.369-2.5-.331-3.449-0.958a10.5,10.5,0,0,1-3.047-3.047c-0.628-.95-1.327-2.257-0.959-3.449a3.957,3.957,0,0,1,.8-1.139,0.861,0.861,0,0,1,.717-0.326L31,181.977a0.523,0.523,0,0,1,.613.431q0.243,0.984.486,1.967a0.384,0.384,0,0,1-.235.488l-0.348.26a0.492,0.492,0,0,0-.237.671,6.328,6.328,0,0,0,2.944,2.944,0.492,0.492,0,0,0,.671-0.237l0.26-.348a0.383,0.383,0,0,1,.488-0.235h0Z"/>
  <path id="User" class="cls-4" d="M46.537,191.986l-0.566-1.235,2.991-1.905V187.78A2.911,2.911,0,0,1,48,185.551c0.026-1.441.293-2.548,2.019-2.522,1.673,0.026,2.026,1.158,2.019,2.445a2.429,2.429,0,0,1-1.046,2.306v1.132l3.1,1.813-0.412,1.281Z"/>
  <path id="Share" class="cls-7" d="M74.962,211.075a2.023,2.023,0,0,1-1.333-.508l-3.59,2.04a1.85,1.85,0,0,1-.018.806l3.642,2.07a1.991,1.991,0,1,1-.648,1.108l-3.664-2.083a2.034,2.034,0,1,1,.076-3.029l3.544-2.014A2.037,2.037,0,1,1,74.962,211.075Z"/>
  <path id="Phone-2" data-name="Phone" class="cls-1" d="M9.639,210.917l1.967,0.486a0.523,0.523,0,0,1,.431.613l-0.013.374a0.858,0.858,0,0,1-.326.717,3.949,3.949,0,0,1-1.138.8c-1.192.369-2.5-.331-3.449-0.958A10.489,10.489,0,0,1,4.063,209.9c-0.627-.95-1.327-2.256-0.958-3.449a3.95,3.95,0,0,1,.8-1.137,0.86,0.86,0,0,1,.717-0.327L5,204.976a0.523,0.523,0,0,1,.613.431L6.1,207.374a0.384,0.384,0,0,1-.235.488l-0.348.26a0.492,0.492,0,0,0-.237.671,6.321,6.321,0,0,0,2.944,2.943,0.491,0.491,0,0,0,.671-0.236c0.081-.109.156-0.21,0.26-0.348a0.383,0.383,0,0,1,.488-0.235h0Z"/>
  <path class="cls-4" d="M114,134.5c0,0.169.017,0.333,0.025,0.5H77a1,1,0,0,0-1,1v27a1,1,0,0,0,1,1h46a1,1,0,0,0,1-1V144.975c0.167,0.008.331,0.025,0.5,0.025a10.589,10.589,0,0,0,1.5-.119V163a3,3,0,0,1-3,3H77a3,3,0,0,1-3-3V136a3,3,0,0,1,3-3h37.119A10.589,10.589,0,0,0,114,134.5Z"/>
  <path class="cls-15" d="M76,164l18-15"/>
  <path class="cls-15" d="M124,164l-18-15"/>
  <path class="cls-15" d="M76,135l24,18,16.093-12.07"/>
  <path id="Shape_353_copy" data-name="Shape 353 copy" class="cls-4" d="M124.507,145.973A11.492,11.492,0,1,1,136,134.481,11.492,11.492,0,0,1,124.507,145.973Zm0-20.982A9.507,9.507,0,1,0,134,134.5,9.5,9.5,0,0,0,124.506,124.991Z"/>
  <path id="Shape_354_copy" data-name="Shape 354 copy" class="cls-4" d="M129.692,132.669l-5.794,6.057a1,1,0,0,1-1.414,0l-3.211-3.024a1,1,0,1,1,1.414-1.414l2.467,2.323,5.124-5.355A1,1,0,1,1,129.692,132.669Z"/>
  <path id="Quote" class="cls-1" d="M100,216H97.512l-2.5,1.971L94.985,216A2,2,0,0,1,93,214v-3a2,2,0,0,1,2-2h5a2,2,0,0,1,2,2v3A2,2,0,0,1,100,216Zm1-5a1,1,0,0,0-1-1H95a1,1,0,0,0-1,1v3a1,1,0,0,0,1,1h1l0.013,0.971L97.243,215H100a1,1,0,0,0,1-1v-3Z"/>
  <path class="cls-1" d="M19.928,188.708l0,0L17,191.989l-2.932-3.276,0,0A4,4,0,1,1,19.928,188.708ZM17,184a2,2,0,1,0,2,2A2,2,0,0,0,17,184Z"/>
  <path class="cls-4" d="M8.928,188.708l0,0L6,191.989l-2.932-3.276,0,0A4,4,0,1,1,8.928,188.708ZM6,184a2,2,0,1,0,2,2A2,2,0,0,0,6,184Z"/>
  <path class="cls-1" d="M96,58L79,62,61,58V21l14.017,3.115a17.905,17.905,0,0,0,.806,2.179L63,23.444v33l15,3.333V30.025q0.479,0.629,1.009,1.214L80,32.433V59.765l15-3.529V43.282l2-2.411V56.222l15,3.333v-33l-3.583-.8a18.015,18.015,0,0,0,.619-1.863L114,25V62Z"/>
  <circle class="cls-16" cx="92" cy="19" r="8"/>
  <path class="cls-17" d="M102.276,28.485L92,40.687l-10.276-12.2A14,14,0,1,1,102.276,28.485Z"/>
  <path class="cls-4" d="M163,58l-17,4-18-4V21l14.017,3.115a18.04,18.04,0,0,0,.806,2.179L130,23.444v33l15,3.333V30.025c0.32,0.419.655,0.825,1.009,1.214L147,32.433V59.765l15-3.529V43.282l2-2.411V56.222l15,3.333v-33l-3.583-.8a17.774,17.774,0,0,0,.618-1.863L181,25V62Z"/>
  <circle class="cls-18" cx="159" cy="19" r="8"/>
  <path class="cls-15" d="M169.276,28.485L159,40.687l-10.276-12.2A14,14,0,1,1,169.276,28.485Z"/>
  <path id="wishlist-4" data-name="wishlist" class="cls-4" d="M136.8,187.534l0,0-0.038.04c-0.06.064-.118,0.129-0.182,0.19l-6.942,7.239h-0.288l-6.995-7.286c-0.023-.023-0.044-0.047-0.067-0.07l-0.143-.149,0.015-.007a4.492,4.492,0,1,1,7.327-5.073A4.5,4.5,0,1,1,136.8,187.534Zm-3.171-5.522c0-.007,0-0.014,0-0.022-0.035,0-.067.011-0.1,0.012-0.01,0-.018,0-0.028,0a2.466,2.466,0,0,0-.567.071,3.121,3.121,0,0,0-.336.105c-0.028.011-.058,0.018-0.085,0.03a3.083,3.083,0,0,0-1.418,1.006h0v0a2.692,2.692,0,0,0-.241.39l-1.031,1.4h-0.584l-1.14-1.478a2.709,2.709,0,0,0-.223-0.342l-0.038-.059-0.009.006a3.112,3.112,0,0,0-1.332-.918c-0.053-.023-0.111-0.038-0.166-0.057-0.091-.028-0.177-0.065-0.271-0.085A2.507,2.507,0,0,0,125.5,182c-0.01,0-.019,0-0.028,0-0.036,0-.07-0.012-0.106-0.012,0,0.008,0,.015,0,0.023a2.49,2.49,0,0,0-1.532,4.344l5.546,6h0.227l5.482-5.937A2.49,2.49,0,0,0,133.631,182.012Z"/>
  <path id="wishlist-5" data-name="wishlist" class="cls-1" d="M158.8,165.534l0,0-0.038.04c-0.06.064-.118,0.129-0.182,0.19l-6.942,7.239h-0.288l-7-7.286c-0.023-.023-0.044-0.047-0.067-0.07l-0.143-.149,0.015-.007a4.492,4.492,0,1,1,7.327-5.073A4.5,4.5,0,1,1,158.8,165.534Zm-3.171-5.522c0-.007,0-0.014,0-0.022-0.035,0-.067.011-0.1,0.012-0.01,0-.018,0-0.028,0a2.466,2.466,0,0,0-.567.071,3.121,3.121,0,0,0-.336.105c-0.028.011-.058,0.018-0.085,0.03a3.083,3.083,0,0,0-1.418,1.006h0v0a2.692,2.692,0,0,0-.241.39l-1.031,1.4h-0.584l-1.14-1.478a2.709,2.709,0,0,0-.223-0.342l-0.038-.059-0.009.006a3.112,3.112,0,0,0-1.332-.918c-0.053-.023-0.111-0.038-0.166-0.057-0.091-.028-0.177-0.065-0.271-0.085A2.507,2.507,0,0,0,147.5,160c-0.01,0-.018,0-0.028,0-0.036,0-.07-0.012-0.106-0.012,0,0.008,0,.015,0,0.023a2.49,2.49,0,0,0-1.532,4.344l5.546,6h0.227l5.482-5.937A2.49,2.49,0,0,0,155.631,160.012Z"/>
</svg>
