<svg xmlns="http://www.w3.org/2000/svg" width="500" height="500" viewBox="0 0 500 500">
  <defs>
    <style>
      .cls-1 {
        fill: #fab600;
      }

      .cls-1, .cls-10, .cls-11, .cls-12, .cls-13, .cls-14, .cls-2, .cls-3, .cls-4, .cls-5, .cls-6, .cls-7, .cls-8, .cls-9 {
        fill-rule: evenodd;
      }

      .cls-2 {
        fill: #ccc;
      }

      .cls-3 {
        fill: #333;
      }

      .cls-4 {
        fill: #37ac09;
      }

      .cls-5 {
        fill: #1d2029;
      }

      .cls-6 {
        fill: #fff;
      }

      .cls-7 {
        fill: #999;
      }

      .cls-8 {
        fill: none;
        stroke: #fff;
        stroke-linecap: round;
        stroke-linejoin: round;
        stroke-width: 2px;
      }

      .cls-9 {
        fill: #444;
      }

      .cls-10 {
        fill: #4fad00;
      }

      .cls-11 {
        fill: #ffc438;
      }

      .cls-12 {
        fill: #893ca9;
      }

      .cls-13 {
        fill: #2992d9;
      }

      .cls-14 {
        fill: #e52929;
      }
    </style>
  </defs>
  <path id="Star" class="cls-1" d="M143.483,50.84l2.063,3.964,4.43,0.754-3.154,3.171,0.674,4.461-4.013-2.036-4.013,2.036,0.675-4.461-3.155-3.171,4.43-.754,2.063-3.964"/>
  <path id="Star-2" data-name="Star" class="cls-2" d="M158.483,50.84l2.063,3.964,4.43,0.754-3.154,3.171,0.674,4.461-4.013-2.036-4.013,2.036,0.675-4.461-3.155-3.171,4.43-.754,2.063-3.964"/>
  <path class="cls-2" d="M99,62a7,7,0,1,1,7-7A7,7,0,0,1,99,62Zm2.828-8.416a1,1,0,1,0-1.414-1.414L99,53.584,97.585,52.17a1,1,0,0,0-1.414,1.414L97.585,55l-1.414,1.414a1,1,0,0,0,1.414,1.415L99,56.412l1.415,1.414a1,1,0,1,0,1.414-1.415L100.414,55Z"/>
  <path id="Star-3" data-name="Star" class="cls-1" d="M382.449,49.838L385.139,55l5.773,0.982L386.8,60.12l0.879,5.815-5.23-2.654-5.231,2.654L378.1,60.12l-4.111-4.134L379.76,55l2.689-5.166"/>
  <path id="Star-4" data-name="Star" class="cls-2" d="M401.45,49.838L404.139,55l5.773,0.982L405.8,60.12l0.879,5.815-5.23-2.654-5.231,2.654L397.1,60.12l-4.111-4.134L398.761,55l2.689-5.166"/>
  <path id="_-" data-name="+-" class="cls-3" d="M89,204H99v2H89v-2Zm-20,2H65v4H63v-4H59v-2h4v-4h2v4h4v2Zm-58,0H8v3H6v-3H3v-2H6v-3H8v3h3v2Zm18-2h8v2H29v-2Z"/>
  <path id="Check" class="cls-4" d="M124.691,54.667L118.9,60.724a1,1,0,0,1-1.415,0L114.272,57.7a1,1,0,0,1,1.414-1.414l2.468,2.324,5.123-5.355A1,1,0,1,1,124.691,54.667Z"/>
  <path id="Shape" class="cls-5" d="M90.683,17.683a1.1,1.1,0,0,1-1.562,0l-2.734-2.734a6.008,6.008,0,1,1,1.562-1.562l2.734,2.734A1.1,1.1,0,0,1,90.683,17.683ZM83,6a4,4,0,1,0,4,4A4,4,0,0,0,83,6Z"/>
  <path id="Shape-2" data-name="Shape" class="cls-5" d="M119.5,10a1.5,1.5,0,1,1-1.5,1.5A1.5,1.5,0,0,1,119.5,10Zm6,0a1.5,1.5,0,1,1-1.5,1.5A1.5,1.5,0,0,1,125.5,10Zm6,0a1.5,1.5,0,1,1-1.5,1.5A1.5,1.5,0,0,1,131.5,10Z"/>
  <path id="Shape-3" data-name="Shape" class="cls-6" d="M158.5,10a1.5,1.5,0,1,1-1.5,1.5A1.5,1.5,0,0,1,158.5,10Zm6,0a1.5,1.5,0,1,1-1.5,1.5A1.5,1.5,0,0,1,164.5,10Zm6,0a1.5,1.5,0,1,1-1.5,1.5A1.5,1.5,0,0,1,170.5,10Z"/>
  <path id="Print" class="cls-7" d="M43,97H40v1a1,1,0,0,1-1,1H33a1,1,0,0,1-1-1V97H29a1,1,0,0,1-1-1V90a1,1,0,0,1,1-1h3V86a1,1,0,0,1,1-1h6a1,1,0,0,1,1,1v3h3a1,1,0,0,1,1,1v6A1,1,0,0,1,43,97Zm-9,0h4V95H34v2Zm4-10H34v2h4V87Zm4,4H30v4h2V94a1,1,0,0,1,1-1h6a1,1,0,0,1,1,1v1h2V91Z"/>
  <path class="cls-8" d="M45,55H34"/>
  <path class="cls-8" d="M41,50l5,5-5,5"/>
  <path id="wishlist" class="cls-6" d="M239.786,58.517l0.051,0.02-0.372.363-0.051.05L231.165,67h-0.332L222.945,59.3a5.335,5.335,0,0,1-.665-0.649l-0.161-.157,0.022-.008A5.173,5.173,0,0,1,221,55.269a5.345,5.345,0,0,1,10.028-2.5A5.309,5.309,0,0,1,241,55.228,5.138,5.138,0,0,1,239.786,58.517Zm-4.1-6.524a3.308,3.308,0,0,0-.8.108c-0.1.022-.189,0.056-0.283,0.087a3.316,3.316,0,0,0-.31.121,3.484,3.484,0,0,0-1.487,1.19h0v0a3.486,3.486,0,0,0-.27.477l-1.476,2.6-1.612-2.7a3.445,3.445,0,0,0-.25-0.419l-0.043-.072-0.01.008a3.513,3.513,0,0,0-.363-0.384c-0.034-.036-0.066-0.074-0.1-0.108-0.066-.059-0.135-0.112-0.205-0.166a3.364,3.364,0,0,0-.52-0.349l-0.007,0a3.337,3.337,0,0,0-4.955,2.883,3.284,3.284,0,0,0,1.458,2.721l6.368,6.2h0.261l6.441-6.269a3.222,3.222,0,0,0,1.455-2.687A3.263,3.263,0,0,0,235.687,51.993Z"/>
  <path id="Cart" class="cls-6" d="M476.927,52.639a0.96,0.96,0,0,1,.067.333A0.268,0.268,0,0,1,477,53c0,0.012-.007.022-0.007,0.034a0.915,0.915,0,0,1,0,.181L475.9,58.1a0.58,0.58,0,0,1-.024.054,0.987,0.987,0,0,1-.97.851H465a1.161,1.161,0,0,1-1.046-.949L463.048,51H461a1,1,0,0,1,0-2h2.906c0.025,0,.046.012,0.071,0.014a0.984,0.984,0,0,1,.318.064h0a0.99,0.99,0,0,1,.624.808L465.192,52H476a0.927,0.927,0,0,1,.093.019,0.938,0.938,0,0,1,.138,0,0.966,0.966,0,0,1,.1.046,1,1,0,0,1,.112.05,0.967,0.967,0,0,1,.235.158c0.017,0.016.032,0.033,0.048,0.05a0.983,0.983,0,0,1,.179.266C476.916,52.607,476.921,52.623,476.927,52.639ZM465.835,57h8.26l0.67-3h-9.316Zm0.669,3.012A2.488,2.488,0,1,1,464,62.5,2.5,2.5,0,0,1,466.5,60.012Zm0,3.063a0.575,0.575,0,1,0-.579-0.575A0.577,0.577,0,0,0,466.5,63.075Zm7-3.079a2.5,2.5,0,1,1-2.5,2.5A2.5,2.5,0,0,1,473.5,60Zm0,3.079a0.575,0.575,0,1,0-.579-0.575A0.577,0.577,0,0,0,473.5,63.075Z"/>
  <path id="Compare" class="cls-6" d="M277,55h0a1,1,0,0,1,1,1V69h-2V56A1,1,0,0,1,277,55Zm-5,3a1,1,0,0,1,1,1V69h-2V59A1,1,0,0,1,272,58Zm-5-6a1,1,0,0,1,1,1V69h-2V53A1,1,0,0,1,267,52Zm-5,8a1,1,0,0,1,1,1v8h-2V61A1,1,0,0,1,262,60Z"/>
  <path id="Compare-2" data-name="Compare" class="cls-7" d="M220,7h0a1,1,0,0,1,1,1V21h-2V8A1,1,0,0,1,220,7Zm-5,3a1,1,0,0,1,1,1V21h-2V11A1,1,0,0,1,215,10Zm-5-6a1,1,0,0,1,1,1V21h-2V5A1,1,0,0,1,210,4Zm-5,8a1,1,0,0,1,1,1v8h-2V13A1,1,0,0,1,205,12Z"/>
  <path id="Compare-3" data-name="Compare" class="cls-3" d="M257,8h0a1,1,0,0,1,1,1V22h-2V9A1,1,0,0,1,257,8Zm-5,3a1,1,0,0,1,1,1V22h-2V12A1,1,0,0,1,252,11Zm-5-6a1,1,0,0,1,1,1V22h-2V6A1,1,0,0,1,247,5Zm-5,8a1,1,0,0,1,1,1v8h-2V14A1,1,0,0,1,242,13Z"/>
  <path id="wishlist-2" data-name="wishlist" class="cls-7" d="M298.786,13.517l0.051,0.02-0.372.362-0.051.05L290.165,22h-0.332L281.945,14.3a5.342,5.342,0,0,1-.665-0.649l-0.161-.157,0.022-.008A5.173,5.173,0,0,1,280,10.269a5.345,5.345,0,0,1,10.028-2.5A5.309,5.309,0,0,1,300,10.228,5.138,5.138,0,0,1,298.786,13.517Zm-4.1-6.524a3.3,3.3,0,0,0-.8.108c-0.1.022-.188,0.056-0.283,0.086s-0.209.074-.31,0.121a3.484,3.484,0,0,0-1.487,1.19h0v0a3.491,3.491,0,0,0-.27.477l-1.476,2.6-1.612-2.7a3.46,3.46,0,0,0-.25-0.419l-0.043-.072-0.01.008a3.506,3.506,0,0,0-.363-0.384c-0.034-.036-0.066-0.074-0.1-0.108-0.066-.059-0.135-0.112-0.2-0.166a3.36,3.36,0,0,0-.52-0.349l-0.006,0a3.338,3.338,0,0,0-4.956,2.883,3.284,3.284,0,0,0,1.458,2.721l6.368,6.2h0.261l6.441-6.269a3.222,3.222,0,0,0,1.455-2.687A3.263,3.263,0,0,0,294.687,6.993Z"/>
  <path id="wishlist-3" data-name="wishlist" class="cls-3" d="M410.786,13.517l0.051,0.02-0.372.362-0.051.05L402.165,22h-0.332L393.945,14.3a5.342,5.342,0,0,1-.665-0.649l-0.161-.157,0.022-.008A5.173,5.173,0,0,1,392,10.269a5.345,5.345,0,0,1,10.028-2.5A5.309,5.309,0,0,1,412,10.228,5.138,5.138,0,0,1,410.786,13.517Zm-4.1-6.524a3.3,3.3,0,0,0-.8.108c-0.1.022-.188,0.056-0.283,0.086s-0.209.074-.31,0.121a3.484,3.484,0,0,0-1.487,1.19h0v0a3.491,3.491,0,0,0-.27.477l-1.476,2.6-1.612-2.7a3.46,3.46,0,0,0-.25-0.419l-0.043-.072-0.01.008a3.505,3.505,0,0,0-.363-0.385c-0.034-.036-0.066-0.073-0.1-0.108-0.066-.059-0.135-0.112-0.2-0.167a3.361,3.361,0,0,0-.52-0.349l-0.007,0a3.337,3.337,0,0,0-4.955,2.883,3.285,3.285,0,0,0,1.458,2.722l6.368,6.2h0.261l6.441-6.269a3.222,3.222,0,0,0,1.455-2.687A3.263,3.263,0,0,0,406.687,6.993Z"/>
  <path id="Cart-2" data-name="Cart" class="cls-6" d="M185,61a3,3,0,1,1-3,3A3,3,0,0,1,185,61Zm-0.031,1.922A1.078,1.078,0,1,1,183.891,64,1.078,1.078,0,0,1,184.969,62.922Zm12.022-8.587-1.17,5.083-0.923.588-12.221.006-0.918-.862-0.688-5.6-0.52-3.541H179V50h-1a1,1,0,0,1,0-2h3.594c0.017,0,.032.009,0.049,0.01h0.078l0.021,0.02a0.975,0.975,0,0,1,.813.776l0.011,0.011,0.013,0.11c0,0.025.015,0.047,0.015,0.072,0,0.007,0,.013,0,0.02l0.346,2.994h13.328l0.727,0.557v1.765ZM183.134,54l0.5,4h10.5l0.924-4H183.134ZM193,61a3,3,0,1,1-3,3A3,3,0,0,1,193,61Zm-0.016,1.938a1.078,1.078,0,1,1-1.078,1.078A1.078,1.078,0,0,1,192.984,62.938Z"/>
  <path id="Cart-3" data-name="Cart" class="cls-7" d="M340.991,10.335l-1.17,5.083-0.923.588-12.221.006-0.918-.862-0.688-5.6-0.52-3.541L322,6a1,1,0,0,1,0-2h3.594c0.017,0,.032.009,0.049,0.01h0.078l0.021,0.02a0.973,0.973,0,0,1,.812.776l0.012,0.011,0.013,0.11c0,0.025.015,0.047,0.015,0.072,0,0.007,0,.013,0,0.02l0.346,2.994h13.328l0.727,0.557v1.765ZM327.134,10l0.5,4h10.5l0.924-4H327.134ZM329,17a3,3,0,1,1-3,3A3,3,0,0,1,329,17Zm-0.031,4.078A1.078,1.078,0,1,0,327.891,20,1.078,1.078,0,0,0,328.969,21.078ZM337,17a3,3,0,1,1-3,3A3,3,0,0,1,337,17Zm-0.016,4.094a1.078,1.078,0,1,0-1.078-1.078A1.078,1.078,0,0,0,336.984,21.094Z"/>
  <path id="Cart-4" data-name="Cart" class="cls-3" d="M373.991,10.335l-1.17,5.083-0.923.588-12.221.006-0.918-.862-0.688-5.6-0.52-3.541H356V6h-1a1,1,0,0,1,0-2h3.594c0.017,0,.032.009,0.049,0.01h0.078l0.021,0.02a0.973,0.973,0,0,1,.812.776l0.012,0.011,0.013,0.11c0,0.025.015,0.047,0.015,0.072,0,0.007,0,.013,0,0.02l0.346,2.994h13.328l0.727,0.557v1.765ZM360.134,10l0.5,4h10.5l0.924-4H360.134ZM362,17a3,3,0,1,1-3,3A3,3,0,0,1,362,17Zm-0.031,4.078A1.078,1.078,0,1,0,360.891,20,1.078,1.078,0,0,0,361.969,21.078ZM370,17a3,3,0,1,1-3,3A3,3,0,0,1,370,17Zm-0.016,4.094a1.078,1.078,0,1,0-1.078-1.078A1.078,1.078,0,0,0,369.984,21.094Z"/>
  <path id="Share" class="cls-9" d="M436,54a1.989,1.989,0,0,1-1.115-.34L430,56.984c0,0.005,0,.01,0,0.015s0,0.01,0,.016l4.887,3.324A2,2,0,1,1,434,62c0-.057.012-0.111,0.017-0.167l-4.794-3.261a2,2,0,1,1,0-3.143l4.794-3.261c0-.056-0.017-0.11-0.017-0.167A2,2,0,1,1,436,54Z"/>
  <path id="menu" class="cls-6" d="M7,6H17a1,1,0,1,1,0,2H7A1,1,0,1,1,7,6Zm0,4H17a1,1,0,0,1,0,2H7A1,1,0,0,1,7,10Zm0,4H17a1,1,0,1,1,0,2H7A1,1,0,0,1,7,14Z"/>
  <path id="menu-2" data-name="menu" class="cls-5" d="M7,48H17a1,1,0,1,1,0,2H7A1,1,0,0,1,7,48Zm0,4H17a1,1,0,0,1,0,2H7A1,1,0,0,1,7,52Zm0,4H17a1,1,0,1,1,0,2H7A1,1,0,1,1,7,56Z"/>
  <path id="user" class="cls-6" d="M311,71H299a2,2,0,0,1-1.966-1.666,7.993,7.993,0,0,1,15.932,0A2,2,0,0,1,311,71Zm-6-7a5.988,5.988,0,0,0-5.9,5h11.8A5.988,5.988,0,0,0,305,64Zm0-3a5,5,0,1,1,5-5A5,5,0,0,1,305,61Zm0-8a3,3,0,1,0,3,3A3,3,0,0,0,305,53Z"/>
  <path id="user-2" data-name="user" class="cls-6" d="M345,74a13,13,0,1,1,13-13A13,13,0,0,1,345,74Zm6.257-3.959a7.957,7.957,0,0,0-12.514,0A10.975,10.975,0,0,0,351.257,70.041ZM345,50a11,11,0,0,0-7.789,18.766,9.948,9.948,0,0,1,15.578,0A11,11,0,0,0,345,50Zm0,14a5,5,0,1,1,5-5A5,5,0,0,1,345,64Zm0-8a3,3,0,1,0,3,3A3,3,0,0,0,345,56Z"/>
  <path id="phone" class="cls-6" d="M40.589,14.147a0.492,0.492,0,0,0-.029-0.2,1.7,1.7,0,0,0-.732-0.511c-0.549-.308-1.108-0.607-1.648-0.925a1.982,1.982,0,0,0-.858-0.443c-0.588,0-1.445,1.744-1.966,1.744a2.072,2.072,0,0,1-.829-0.376,9.589,9.589,0,0,1-3.942-3.942,2.072,2.072,0,0,1-.376-0.829c0-.52,1.744-1.378,1.744-1.966a1.982,1.982,0,0,0-.443-0.858c-0.318-.54-0.617-1.1-0.925-1.648a1.7,1.7,0,0,0-.511-0.732,0.491,0.491,0,0,0-.2-0.029,4.287,4.287,0,0,0-1.339.3,2.539,2.539,0,0,0-1.021,1.176A3.683,3.683,0,0,0,27.02,6.7a7.422,7.422,0,0,0,.665,2.525,9.01,9.01,0,0,0,.8,1.686,16.268,16.268,0,0,0,4.626,4.626,9,9,0,0,0,1.686.8A7.425,7.425,0,0,0,37.322,17a3.683,3.683,0,0,0,1.793-.492,2.539,2.539,0,0,0,1.176-1.021A4.289,4.289,0,0,0,40.589,14.147Z"/>
  <path id="User-3" data-name="User" class="cls-3" d="M438.01,17.566h0a0.421,0.421,0,0,1-.422.42h-8.165a0.421,0.421,0,0,1-.422-0.42h0a2.475,2.475,0,0,1,1.124-2.086c0.712-.352.438-0.066,1.311-0.426a3,3,0,0,1,1.155-.329l-0.224-.912a1.58,1.58,0,0,1-.415-0.774l-0.29-1.822a3.916,3.916,0,0,1-.05-0.739A1.88,1.88,0,0,1,433.512,9a1.721,1.721,0,0,1,1.894,1.476,5.21,5.21,0,0,1-.085.987s0,0,.008,0l-0.209,1.311a1.657,1.657,0,0,1-.477,1.03l-0.224.908a2.828,2.828,0,0,1,1.156.321c0.873,0.36.6,0.091,1.311,0.443a2.474,2.474,0,0,1,1.124,2.086h0Z"/>
  <path id="More" class="cls-6" d="M464,4h17V21H464V4Zm15.906,8.5A7.4,7.4,0,0,1,475,19.464v-1.95a5.584,5.584,0,0,0,0-10.027V8a1,1,0,0,1-2,0V4h4.033a0.967,0.967,0,0,1,.967.967V5a1,1,0,0,1-1,1h-1.039A7.344,7.344,0,0,1,479.906,12.5ZM467.967,21A0.967,0.967,0,0,1,467,20.033V20a1,1,0,0,1,1-1h1.039A7.364,7.364,0,0,1,470,5.536v1.95a5.584,5.584,0,0,0,0,10.027V17a1,1,0,0,1,2,0v4h-4.033Z"/>
  <path id="sticker-tail" class="cls-10" d="M3.007,93l5,10.564v1.443H3V80.995H8.007v1.443Z"/>
  <path id="sticker-tail-2" data-name="sticker-tail" class="cls-11" d="M3.007,120l5,10.564v1.443H3V108H8.007v1.443Z"/>
  <path id="sticker-tail-3" data-name="sticker-tail" class="cls-12" d="M3.007,147l5,10.564v1.443H3V135H8.007v1.443Z"/>
  <path id="sticker-tail-4" data-name="sticker-tail" class="cls-13" d="M3.007,174l5,10.564v1.443H3V162H8.007v1.443Z"/>
  <path id="sticker-tail-5" data-name="sticker-tail" class="cls-14" d="M75.007,55l5,10.564V67.01H75V42.995h5.007v1.443Z"/>
</svg>
