<svg xmlns="http://www.w3.org/2000/svg" viewBox="0 0 400 50"><path d="M45.3 47H45c-.3 0-.6-.1-.9-.3L40 43.4l-4.1 3.3c-.1.1-.3.2-.4.2h-.8c-.2 0-.3-.1-.4-.2L30 43.4l-4.1 3.3c-.1.1-.3.2-.4.2h-.8c-.2 0-.3-.1-.4-.2L20 43.4l-4.1 3.3c-.1.1-.3.2-.4.2h-.8c-.2 0-.3-.1-.4-.2L10 43.4l-4.1 3.3c-.3.2-.6.3-.9.3h-.3C3.2 46.8 2 45.5 2 44V5c0-1.7 1.3-3 3-3h40c1.7 0 3 1.3 3 3v39c0 1.5-1.2 2.8-2.7 3zm-.3-5V6c0-.6-.4-1-1-1H6c-.6 0-1 .4-1 1v37.6l4.1-3.3c.1-.1.2-.1.4-.2.1 0 .1 0 .2-.1h.6c.1 0 .1 0 .2.1.1 0 .3.1.4.2l4.1 3.3 4.1-3.3c.1-.1.2-.1.4-.2.1 0 .1 0 .2-.1h.6c.1 0 .1 0 .2.1.1 0 .3.1.4.2l4.1 3.3 4.1-3.3c.1-.1.2-.1.4-.2.1 0 .1 0 .2-.1h.6c.1 0 .1 0 .2.1.1 0 .3.1.4.2l4.1 3.3 4.1-3.3c.1-.1.2-.1.4-.2.1 0 .1 0 .2-.1h.6c.1 0 .1 0 .2.1.1 0 .3.1.4.2l4.1 3.3V42zM35 31H22c-.6 0-1-.4-1-1v-1c0-.6.4-1 1-1h13c.6 0 1 .4 1 1v1c0 .6-.4 1-1 1zm0-7H22c-.6 0-1-.4-1-1v-1c0-.6.4-1 1-1h13c.6 0 1 .4 1 1v1c0 .6-.4 1-1 1zm0-7H22c-.6 0-1-.4-1-1v-1c0-.6.4-1 1-1h13c.6 0 1 .4 1 1v1c0 .6-.4 1-1 1zM17 31h-2c-.6 0-1-.4-1-1v-1c0-.6.4-1 1-1h2c.6 0 1 .4 1 1v1c0 .6-.4 1-1 1zm0-7h-2c-.6 0-1-.4-1-1v-1c0-.6.4-1 1-1h2c.6 0 1 .4 1 1v1c0 .6-.4 1-1 1zm0-7h-2c-.6 0-1-.4-1-1v-1c0-.6.4-1 1-1h2c.6 0 1 .4 1 1v1c0 .6-.4 1-1 1zm78 28H55c-2.8 0-5-2.2-5-5V10c0-2.8 2.2-5 5-5h40c2.8 0 5 2.2 5 5v30c0 2.8-2.2 5-5 5zm-40-3h40c1.1 0 2-.9 2-2V23H53v17c0 1.1.9 2 2 2zm42-32c0-1.1-.9-2-2-2H55c-1.1 0-2 .9-2 2v3h44v-3zm-44 6v4h44v-4H53zm6.5 18h4c.8 0 1.5.7 1.5 1.5s-.7 1.5-1.5 1.5h-4c-.8 0-1.5-.7-1.5-1.5s.7-1.5 1.5-1.5zm10 0h4c.8 0 1.5.7 1.5 1.5s-.7 1.5-1.5 1.5h-4c-.8 0-1.5-.7-1.5-1.5s.7-1.5 1.5-1.5zM125 50c-13.8 0-25-11.2-25-25s11.2-25 25-25 25 11.2 25 25-11.2 25-25 25zm10.8-5.9c-2.1-.6-3.9-1.7-5.6-3.1-1.2-1.1-1.7-3.2-1.9-4.6-2.1.8-4.4.8-6.6.1-.1 1.7-.8 3.2-1.9 4.5-1.7 1.5-3.6 2.5-5.7 3.2 6.9 3.8 15.1 3.7 21.7-.1zM125 33.9c3.9 0 7-3.1 7-7v-5.8c0-3.9-3.1-7-7-7s-7 3.1-7 7v5.8c0 3.8 3.1 7 7 7zM125 3c-12.2 0-22 9.8-22 22 0 6.6 2.9 12.8 8 17 2.3-.3 4.5-1.2 6.3-2.8 1.1-1.1 1.7-2.6 1.7-4.2-2.5-1.9-4-4.9-4-8v-6c0-5.5 4.5-10 10-10s10 4.5 10 10v6c0 3-1.4 5.9-3.8 7.8 0 1.6.6 3.2 1.7 4.4 1.7 1.5 3.8 2.4 6.1 2.7 9.3-7.8 10.6-21.6 2.9-31-4.2-5-10.4-7.9-16.9-7.9zm68 47h-36c-2.2 0-4-1.8-4-4V8c0-2.2 1.8-4 4-4h5.2c.7-2.4 2.8-4 5.3-4h15c2.5 0 4.6 1.6 5.3 4h5.2c2.2 0 4 1.8 4 4v38c0 2.2-1.8 4-4 4zM182.5 3h-15c-1.4 0-2.5 1.1-2.5 2.5s1.1 2.5 2.5 2.5h15c1.4 0 2.5-1.1 2.5-2.5S183.9 3 182.5 3zM194 8c0-.6-.4-1-1-1h-5.2c-.7 2.4-2.8 4-5.3 4h-15c-2.5 0-4.6-1.6-5.3-4H157c-.6 0-1 .4-1 1v38c0 .6.4 1 1 1h36c.6 0 1-.4 1-1V8zm-10.5 32h-8c-.8 0-1.5-.7-1.5-1.5s.7-1.5 1.5-1.5h8c.8 0 1.5.7 1.5 1.5s-.7 1.5-1.5 1.5zm0-7h-8c-.8 0-1.5-.7-1.5-1.5s.7-1.5 1.5-1.5h8c.8 0 1.5.7 1.5 1.5s-.7 1.5-1.5 1.5zm0-7h-8c-.8 0-1.5-.7-1.5-1.5s.7-1.5 1.5-1.5h8c.8 0 1.5.7 1.5 1.5s-.7 1.5-1.5 1.5zm0-7h-8c-.8 0-1.5-.7-1.5-1.5s.7-1.5 1.5-1.5h8c.8 0 1.5.7 1.5 1.5s-.7 1.5-1.5 1.5zm-15 21h-2c-.8 0-1.5-.7-1.5-1.5s.7-1.5 1.5-1.5h2c.8 0 1.5.7 1.5 1.5s-.7 1.5-1.5 1.5zm0-7h-2c-.8 0-1.5-.7-1.5-1.5s.7-1.5 1.5-1.5h2c.8 0 1.5.7 1.5 1.5s-.7 1.5-1.5 1.5zm0-7h-2c-.8 0-1.5-.7-1.5-1.5s.7-1.5 1.5-1.5h2c.8 0 1.5.7 1.5 1.5s-.7 1.5-1.5 1.5zm0-7h-2c-.8 0-1.5-.7-1.5-1.5s.7-1.5 1.5-1.5h2c.8 0 1.5.7 1.5 1.5s-.7 1.5-1.5 1.5zm77 8h-24c-.8 0-1.5-.7-1.5-1.5s.7-1.5 1.5-1.5h24c.8 0 1.5.7 1.5 1.5s-.7 1.5-1.5 1.5zm0-16h-24c-.8 0-1.5-.7-1.5-1.5s.7-1.5 1.5-1.5h24c.8 0 1.5.7 1.5 1.5s-.7 1.5-1.5 1.5zm-37 37c-3.6 0-6.5-2.9-6.5-6.5s2.9-6.5 6.5-6.5 6.5 2.9 6.5 6.5-2.9 6.5-6.5 6.5zm0-10c-1.9 0-3.5 1.6-3.5 3.5s1.6 3.5 3.5 3.5 3.5-1.6 3.5-3.5-1.6-3.5-3.5-3.5zm0-6c-3.6 0-6.5-2.9-6.5-6.5s2.9-6.5 6.5-6.5 6.5 2.9 6.5 6.5-2.9 6.5-6.5 6.5zm0-10c-1.9 0-3.5 1.6-3.5 3.5s1.6 3.5 3.5 3.5 3.5-1.6 3.5-3.5-1.6-3.5-3.5-3.5zm0-6c-3.6 0-6.5-2.9-6.5-6.5s2.9-6.5 6.5-6.5 6.5 2.9 6.5 6.5-2.9 6.5-6.5 6.5zm0-10c-1.9 0-3.5 1.6-3.5 3.5s1.6 3.5 3.5 3.5 3.5-1.6 3.5-3.5-1.6-3.5-3.5-3.5zm13 34h24c.8 0 1.5.7 1.5 1.5s-.7 1.5-1.5 1.5h-24c-.8 0-1.5-.7-1.5-1.5s.7-1.5 1.5-1.5zM346 48h-42c-2.2 0-4-1.8-4-4V18c0-2.2 1.8-4 4-4h5V5c0-1.7 1.3-3 3-3h26c1.7 0 3 1.3 3 3v9h5c2.2 0 4 1.8 4 4v26c0 2.2-1.8 4-4 4zm-42-31c-.6 0-1 .4-1 1v.6l6 4.3V17h-5zm34-12h-26v20.1l12.9 9.3L338 25V5zm9 13c0-.6-.4-1-1-1h-5v5.8l6-4.3V18zm0 4.6l-20.9 14.9c-.7.7-1.7.7-2.4 0L303 22.7V44c0 .6.4 1 1 1h42c.6 0 1-.4 1-1V22.6zm-23.2.4c-.5 0-.9-.2-1.2-.5l-5.1-5.6c-.7-.7-.7-1.8 0-2.4.7-.7 1.8-.7 2.4 0l3.9 4.3 7.2-7.3c.7-.7 1.8-.7 2.4 0 .7.7.7 1.8 0 2.4l-8.5 8.6c-.2.3-.7.5-1.1.5zM393 49h-34c-2.2 0-4-1.8-4-4v-7h-1.5c-.8 0-1.5-.7-1.5-1.5s.7-1.5 1.5-1.5h1.5v-9h-1.5c-.8 0-1.5-.7-1.5-1.5s.7-1.5 1.5-1.5h1.5v-9h-1.5c-.8 0-1.5-.7-1.5-1.5s.7-1.5 1.5-1.5h1.5V4c0-2.2 1.8-4 4-4h34c2.2 0 4 1.8 4 4v41c0 2.2-1.8 4-4 4zM363 3h-4c-.6 0-1 .4-1 1v7h.5c.8 0 1.5.7 1.5 1.5s-.7 1.5-1.5 1.5h-.5v9h.5c.8 0 1.5.7 1.5 1.5s-.7 1.5-1.5 1.5h-.5v9h.5c.8 0 1.5.7 1.5 1.5s-.7 1.5-1.5 1.5h-.5v7c0 .6.4 1 1 1h4V3zm31 1c0-.6-.4-1-1-1h-27v43h27c.6 0 1-.4 1-1V4zm-6.5 17h-15c-.8 0-1.5-.7-1.5-1.5s.7-1.5 1.5-1.5h15c.8 0 1.5.7 1.5 1.5s-.7 1.5-1.5 1.5zm0-7h-15c-.8 0-1.5-.7-1.5-1.5s.7-1.5 1.5-1.5h15c.8 0 1.5.7 1.5 1.5s-.7 1.5-1.5 1.5zm-15 11h7c.8 0 1.5.7 1.5 1.5s-.7 1.5-1.5 1.5h-7c-.8 0-1.5-.7-1.5-1.5s.7-1.5 1.5-1.5zM298 14.7v.5l-3.4 13.1c-.2.5-.5.9-.9 1.2-.4.3-.9.4-1.4.4h-26.2c-.6 0-1.1-.3-1.5-.8-.3-.3-.5-.7-.7-1.2L259 7h-6.5c-.8 0-1.5-.7-1.5-1.5s.7-1.5 1.5-1.5h8c.7 0 1.3.5 1.4 1.2l1.7 7.8h32.7c1 0 1.7.7 1.7 1.7zM267 27h25l2.8-11h-30.4l2.6 11zm3.5 6c3.6 0 6.5 2.9 6.5 6.5s-2.9 6.5-6.5 6.5-6.5-2.9-6.5-6.5 2.9-6.5 6.5-6.5zm0 10c1.9 0 3.5-1.6 3.5-3.5s-1.6-3.5-3.5-3.5-3.5 1.6-3.5 3.5 1.6 3.5 3.5 3.5zm17-10c3.6 0 6.5 2.9 6.5 6.5s-2.9 6.5-6.5 6.5-6.5-2.9-6.5-6.5 2.9-6.5 6.5-6.5zm0 10c1.9 0 3.5-1.6 3.5-3.5s-1.6-3.5-3.5-3.5-3.5 1.6-3.5 3.5 1.6 3.5 3.5 3.5z" fill-rule="evenodd" clip-rule="evenodd" fill="#fbfbfb"/></svg>