<svg xmlns="http://www.w3.org/2000/svg" viewBox="0 0 512 512"><path d="M0 64.6v382.7c0 35.2 28.6 63.8 63.8 63.8h191.4c11.8 0 21.3-9.5 21.3-21.3s-9.5-21.3-21.3-21.3H63.8c-11.7 0-21.3-9.5-21.3-21.3V64.6c0-11.7 9.5-21.3 21.3-21.3h191.4c11.8 0 21.3-9.5 21.3-21.3S267 .7 255.2.7H63.8"/><path d="M63.8 508.3c-33.6 0-61-27.3-61-61V64.6c0-33.6 27.3-61 61-61h191.4c10.2 0 18.4 8.3 18.4 18.4 0 10.2-8.3 18.4-18.4 18.4H63.8c-13.3 0-24.1 10.8-24.1 24.1v382.7c0 13.3 10.8 24.1 24.1 24.1h191.4c10.2 0 18.4 8.3 18.4 18.4s-8.3 18.4-18.4 18.4H63.8z"/><path d="M361.5 402c-5 0-9.6-2-13.1-5.5-7.1-7.2-7-18.9.2-26.1l97.3-96H191.4c-10.2 0-18.4-8.3-18.4-18.4 0-10.2 8.3-18.4 18.4-18.4h254.5l-97.3-96c-3.5-3.5-5.5-8.1-5.5-13s1.9-9.6 5.3-13.1c3.5-3.5 8.2-5.5 13.1-5.5s9.5 1.9 12.9 5.3l129.3 127.6c3.5 3.5 5.5 8.2 5.5 13.1s-2 9.7-5.5 13.1L374.4 396.7c-3.5 3.4-8.1 5.3-12.9 5.3z"/></svg>