<svg xmlns="http://www.w3.org/2000/svg" viewBox="0 0 19 16"><path d="M9.5 16l-.5-.3c-.2-.2-.6-.4-1-.6-.8-.5-2-1.4-3.3-2.4-1.4-1.2-2.5-2.3-3.3-3.4C.5 7.9 0 6.5 0 5.3 0 2.4 2.3 0 5.2 0 7 0 8.6.9 9.5 2.4 10.4.9 12 0 13.8 0 16.7 0 19 2.4 19 5.3c0 1.2-.5 2.5-1.5 3.9-.8 1.1-1.9 2.3-3.3 3.4-1.2 1-2.5 1.9-3.3 2.4-.4.3-.7.5-1 .6l-.4.4zM4.7 1.3c-2 0-3.6 1.7-3.6 3.9 0 .9.4 2 1.2 3.2.8 1.1 1.9 2.3 3.3 3.5C6.9 13 8.2 14 9 14.5c.2.1.3.2.4.3.1-.1.3-.2.4-.3.9-.6 2.2-1.5 3.4-2.6 1.4-1.2 2.5-2.4 3.3-3.5.8-1.2 1.2-2.3 1.2-3.2 0-2.1-1.6-3.9-3.6-3.9-3.7 0-4.8 3.3-4.8 3.3S8.1 1.3 4.7 1.3z" fill="#434d54"/></svg>