<svg xmlns="http://www.w3.org/2000/svg" xmlns:xlink="http://www.w3.org/1999/xlink" viewBox="0 0 598.81 463.63"><defs><linearGradient id="r" x1="1430.48" y1="108.49" x2="1457.53" y2="153.47" gradientTransform="rotate(18.77 508.109 139.036)" xlink:href="#a"/><linearGradient id="a" x1="1126.38" y1="445.07" x2="943.08" y2="367.79" gradientUnits="userSpaceOnUse"><stop offset="0" stop-color="#fff" stop-opacity="0"/><stop offset="1" stop-color="#235196"/></linearGradient><linearGradient id="b" x1="951.89" y1="300.42" x2="1065.57" y2="403.89" gradientTransform="rotate(40.39 1024.647 366.638)" xlink:href="#a"/><linearGradient id="q" x1="1371.45" y1="108.29" x2="1398.5" y2="153.26" gradientTransform="rotate(18.77 508.109 139.036)" xlink:href="#a"/><linearGradient id="d" x1="1350.96" y1="269.03" x2="897.77" y2="269.03" gradientTransform="matrix(1 .09 -.09 1 -879.7 -128.31)" xlink:href="#a"/><linearGradient id="e" x1="1221.81" y1="179.05" x2="1264.18" y2="249.48" gradientTransform="rotate(21.04 395.573 244.463)" xlink:href="#a"/><linearGradient id="f" x1="1201.25" y1="592.07" x2="1243.62" y2="662.51" gradientTransform="rotate(-15.79 735.497 404.993)" xlink:href="#a"/><linearGradient id="g" x1="1371.99" y1="-49.84" x2="1399.05" y2="-4.86" gradientTransform="rotate(18.77 508.109 139.036)" xlink:href="#a"/><linearGradient id="h" x1="1431.03" y1="-49.63" x2="1458.08" y2="-4.66" gradientTransform="rotate(18.77 508.109 139.036)" xlink:href="#a"/><linearGradient id="i" x1="1371.88" y1="-18.21" x2="1398.94" y2="26.76" gradientTransform="rotate(18.77 508.109 139.036)" xlink:href="#a"/><linearGradient id="j" x1="1430.92" y1="-18.01" x2="1457.97" y2="26.97" gradientTransform="rotate(18.77 508.109 139.036)" xlink:href="#a"/><linearGradient id="k" x1="1371.78" y1="13.42" x2="1398.83" y2="58.39" gradientTransform="rotate(18.77 508.109 139.036)" xlink:href="#a"/><linearGradient id="l" x1="1430.81" y1="13.62" x2="1457.86" y2="58.59" gradientTransform="rotate(18.77 508.109 139.036)" xlink:href="#a"/><linearGradient id="m" x1="1371.67" y1="45.04" x2="1398.72" y2="90.01" gradientTransform="rotate(18.77 508.109 139.036)" xlink:href="#a"/><linearGradient id="n" x1="1430.7" y1="45.24" x2="1457.75" y2="90.22" gradientTransform="rotate(18.77 508.109 139.036)" xlink:href="#a"/><linearGradient id="o" x1="1371.56" y1="76.67" x2="1398.61" y2="121.64" gradientTransform="rotate(18.77 508.109 139.036)" xlink:href="#a"/><linearGradient id="p" x1="1430.59" y1="76.87" x2="1457.64" y2="121.84" gradientTransform="rotate(18.77 508.109 139.036)" xlink:href="#a"/><clipPath id="c" transform="translate(-904.07 -84.07)"><ellipse cx="1024.72" cy="366.71" rx="43.31" ry="34.86" transform="rotate(-40.39 1024.611 366.712)" fill="none"/></clipPath><style>.c{fill:#d1dde8}.d{fill:#e7edf4}.e{fill:#235196}.f{fill:#4dd0e1}.j{fill:#fff}</style></defs><g style="isolation:isolate"><circle class="c" cx="1236.82" cy="248.9" r="164.83" transform="rotate(-45 683.311 1298.173)"/><circle class="d" cx="1436.21" cy="373.09" r="66.67" transform="rotate(-45 882.693 1422.366)"/><path class="e" d="M208.93 340.61l-49-84.91-80.47 50.33 49.87 86.75a31.42 31.42 0 004.06 6.12c13.77 16.18 41.23 15.44 61.34-1.67 18.68-15.88 24.44-40.3 14.2-56.62z"/><path class="f" d="M178.77 365.18a63 63 0 0011.52-12.9c-.23-.42-.43-.84-.68-1.25l-19-33a63.43 63.43 0 01-10.23 11c-21.8 18.54-51.57 19.38-66.54 1.88l23.5 40.87c15.93 12.38 41.86 10.04 61.43-6.6z"/><path d="M1066.3 492.45a35.63 35.63 0 01-4.65-7l-57.07-99.27 63.36-39.63-3.92-6.79-80.47 50.33 49.87 86.75a31.42 31.42 0 004.06 6.12c7.37 8.66 18.67 12.42 30.65 11.47q-.94-.94-1.83-1.98z" transform="translate(-904.07 -84.07)" style="mix-blend-mode:multiply" fill="url(#a)"/><ellipse class="e" cx="1024.72" cy="366.71" rx="47.8" ry="38.47" transform="rotate(-40.39 458.311 1553.608)"/><ellipse cx="1024.72" cy="366.71" rx="43.31" ry="34.86" transform="rotate(-40.39 458.311 1553.608)" style="mix-blend-mode:multiply" fill="url(#b)"/><g clip-path="url(#c)"><path class="c" d="M172.3 301.5l-.09-7.91h-1.85a18 18 0 00-32.29.34h-1.85l.09 7.91a18.001 18.001 0 1036-.38z"/><circle class="d" cx="1058.29" cy="377.85" r="18" transform="rotate(-45 504.778 1427.134)"/><path class="j" d="M136.65 289.93a17.51 17.51 0 00.09 8.1l35-.37a17.54 17.54 0 00.43-4.06 18.11 18.11 0 00-.51-4.05z"/><path class="c" d="M142.76 264.93l-7.26-3.14-.73 1.7a18 18 0 00-12.84 29.65l-.73 1.7 7.26 3.14a18 18 0 1014.29-33z"/><path class="d" d="M144.87 285.47a18 18 0 11-9.37-23.66 18 18 0 019.37 23.66z"/><path class="j" d="M117.68 292.8a17.71 17.71 0 007.44 3.22l13.91-32.17a17.71 17.71 0 00-7.44-3.22z"/><path class="c" d="M128.01 315.87l-1.83-7.7-1.8.43a18 18 0 00-31.45 7.46l-1.8.43 1.83 7.69a18 18 0 1035-8.31z"/><circle class="d" cx="1012.74" cy="396.4" r="18" transform="rotate(-10.75 113.592 5158.657)"/><path class="j" d="M90.69 312.44a18.25 18.25 0 00.47 4.05 18 18 0 001.4 3.83l34.09-8.1a17.68 17.68 0 00-.47-4.05 17.49 17.49 0 00-1.4-3.83z"/></g><path class="c" d="M160.05 227.27l-1.83-7.7-1.8.43a18 18 0 00-31.42 7.46l-1.8.43 1.83 7.7a18 18 0 1035-8.32z"/><path class="d" d="M144.87 241.24a18 18 0 1113.35-21.67 18 18 0 01-13.35 21.67z"/><path class="j" d="M122.73 223.84a17.4 17.4 0 001.87 7.88l34.1-8.1a18.27 18.27 0 00-.48-4.05 17.49 17.49 0 00-1.4-3.83z"/><path class="c" d="M116.52 165.04l-1.82-7.7-1.8.43a18 18 0 00-31.42 7.46l-1.8.43 1.82 7.7a18 18 0 0035-8.32z"/><path class="d" d="M101.35 179.01a18 18 0 1113.35-21.67 18 18 0 01-13.35 21.67z"/><path class="j" d="M79.2 161.61a17.58 17.58 0 001.88 7.88l34.09-8.09a18.27 18.27 0 00-.47-4.06 18.58 18.58 0 00-1.4-3.83z"/><path class="c" d="M87.06 208.15l-7.45-7.79-2 2.29c-18.3-6.86-41.91 2-56.26 22.45-11.4 16.23-14 35.46-8.18 50.16l-2.07 2.33 11 11a31.87 31.87 0 003.53 2.88c18.85 13.24 47.46 5 63.91-18.43 15.89-22.61 14.96-46.83-2.48-64.89z"/><path class="d" d="M42.5 297.6a33.73 33.73 0 01-4.36-.66l-27.31-30.01-5.56-6.11 2-1.87 3 3.26zm11.07-.46c-1.1.19-2.22.36-3.32.46l-33.48-36.74 2-1.87zm9.18-2.57c-.93.37-1.89.71-2.84 1l-31.63-34.71 2-1.87zm7.96-3.88c-.83.47-1.66.95-2.49 1.39l-28.46-31.22 2.06-1.87zm7.02-4.9c-.73.58-1.46 1.14-2.2 1.68l-24.26-26.61 2-1.87zm6.2-5.86c-.63.69-1.27 1.33-1.93 2l-19.24-21.08 2.06-1.87zm5.55-6.79c-.54.77-1.1 1.53-1.68 2.26l-23.57-25.86 2-1.86zm4.78-7.75c-.44.85-.92 1.7-1.41 2.53l-28.62-31.4 2-1.87zm3.84-8.83c-.33 1-.68 2-1.1 2.91l-32.77-36 2-1.87zm2.41-10.38c-.15 1.16-.33 2.33-.56 3.49L64.23 210.5l2-1.87zm.21-8.68l-33.79-37.05-2.7-3 2-1.87 4.82 5.3 29 31.83a36.45 36.45 0 01.67 4.79z"/><ellipse class="d" cx="949.36" cy="323" rx="51.81" ry="41.7" transform="rotate(-54.92 416.348 1150.82)"/><path class="j" d="M53.66 195.53a31.43 31.43 0 0118.21 5.57c16.7 11.73 18.37 38.25 3.71 59.11-9.59 13.65-24.4 22.13-38.65 22.13a31.5 31.5 0 01-18.21-5.57C2.02 265.03.35 238.52 15 217.66c9.59-13.65 24.4-22.13 38.66-22.13m0-1c-14.11 0-29.33 8.11-39.47 22.55-15 21.35-13.23 48.44 4 60.5a32.29 32.29 0 0018.74 5.76c14.11 0 29.33-8.11 39.47-22.56 15-21.34 13.22-48.43-4-60.5a32.3 32.3 0 00-18.78-5.75z"/><path class="f" d="M464.52 463.44l-248.21-42.35a12.61 12.61 0 01-10.44-13.55l31.5-353.91a12.61 12.61 0 0112.67-11.49l251.79 2.15a12.62 12.62 0 0112.46 13.73l-35.08 394.11a12.61 12.61 0 01-14.69 11.31z"/><path class="d" d="M463.3 450.9l-243.79-41.6 29.96-336.56 247.31 2.12L463.3 450.9z"/><path style="mix-blend-mode:multiply" fill="url(#d)" d="M463.3 450.9l-243.79-41.6 29.96-336.56 247.31 2.12L463.3 450.9z"/><path class="j" d="M496.78 74.85l-247.31-2.11s-32.81 277.06-53.8 294.82l247 53.92z"/><path class="d" d="M195.67 367.56s-27.14-13.12-24.72-50.38l220.33 51.75s45.56 90 54.94 29.86l-3.54 22.71z"/><circle class="e" cx="1235.25" cy="144" r="6.21" transform="rotate(-11.65 371.501 4532.962)"/><circle class="e" cx="1323.82" cy="143.87" r="6.21" transform="rotate(-12.62 491.604 4189.768)"/><path d="M331.18 59.93l-2 22.06a6 6 0 006 6.56l29.46-.05.09-1a6.32 6.32 0 016.25-5.78h2.82a6.31 6.31 0 016.34 6.82h31.52a6 6 0 006-5.49l2-23.13" stroke-width="3" stroke="#235196" stroke-linejoin="round" fill="none"/><path d="M282.33 128.15l156.65 4.13m-158.74 19.39l156.65 4.13m-160.52 19.22l156.65 4.13m-160.51 19.22l156.65 4.13m-160.51 19.23l156.65 4.13" stroke-width="3" stroke="#e7edf4" stroke-linecap="round" stroke-miterlimit="10" fill="none"/><path class="d" d="M344.45 280.29a24.75 24.75 0 11-22.46-26.85 24.75 24.75 0 0122.46 26.85z"/><path d="M274.05 293.65a39.56 39.56 0 01-8.4-30.62c.39-2.61 1.44-5.61 4-6.34 3.75-1.06 6.44 3.51 7.65 7.22l4.66 14.36a4.09 4.09 0 001.45 2.38c3.79 2.37 5.57-8.51 9.74-6.89 2.28.88 1.57 4.39 2.92 6.43 1.52 2.28 5 1.89 7.45.57s4.57-3.36 7.3-3.64 5.21 1.17 7.84.88c4.56-.49 8.14-6 12.56-4.74" stroke="#d1dde8" stroke-linecap="round" stroke-miterlimit="10" stroke-width="3" fill="none"/><path class="j" d="M318 428.27l-38.45-14.79a13.55 13.55 0 00-17.51 7.78 13.55 13.55 0 007.78 17.52l38.45 14.79a13.55 13.55 0 0017.51-7.78 13.55 13.55 0 00-7.78-17.52z"/><path class="e" d="M318 428.27l-19.22-7.34-9.74 25.3 19.23 7.39a13.553 13.553 0 009.73-25.3z"/><path d="M1221.7 530.09L1172 511a13.58 13.58 0 01-6.17-4.79 13.54 13.54 0 008.06 16.67l38.45 14.79a13.54 13.54 0 0017.15-7 13.49 13.49 0 01-7.79-.58z" transform="translate(-904.07 -84.07)" style="mix-blend-mode:multiply" fill="url(#e)"/><path class="j" d="M375.4 380.93l-39.64 11.21a13.55 13.55 0 00-9.35 16.73 13.56 13.56 0 0016.73 9.36l39.63-11.3a13.55 13.55 0 009.36-16.73 13.57 13.57 0 00-16.73-9.27z"/><path class="e" d="M375.4 380.93l-19.82 5.61 7.38 26.08 19.81-5.6a13.56 13.56 0 10-7.37-26.09z"/><path d="M1289.81 479.38l-51.24 14.48a13.46 13.46 0 01-7.81-.13 13.55 13.55 0 0016.45 8.52l39.63-11.25a13.55 13.55 0 009.56-15.87 13.56 13.56 0 01-6.59 4.25z" transform="translate(-904.07 -84.07)" style="mix-blend-mode:multiply" fill="url(#f)"/><path class="f" d="M170.92 73.46h-13.66V59.81h-15.21v13.65h-13.66v15.22h13.66v13.65h15.21V88.68h13.66V73.46z"/><path class="e" d="M209.68 128.32h-9.27v-9.27h-10.33v9.27h-9.27v10.33h9.27v9.27h10.33v-9.27h9.27v-10.33z"/><path class="f" d="M573.38 104.15h-9.27v-9.27h-10.33v9.27h-9.27v10.33h9.27v9.27h10.33v-9.27h9.27v-10.33z"/><path class="e" d="M520.25 379.99l64.91-188.9c1.33-3.88-1.14-8.26-5.52-9.76l-109.12-37.5c-4.39-1.51-9 .42-10.36 4.31l-64.91 188.9c-1.33 3.88 1.14 8.25 5.52 9.76l109.16 37.5c4.35 1.5 9-.43 10.32-4.31z"/><path d="M502.25 178.56l-24.9-8.46a8.66 8.66 0 00-11 5.41 8.65 8.65 0 005.41 11l24.9 8.46a8.65 8.65 0 0011-5.41 8.67 8.67 0 00-5.41-11zm55.82 19.19l-24.9-8.47a8.66 8.66 0 00-11 5.41 8.65 8.65 0 005.41 11l24.9 8.46a8.64 8.64 0 0011-5.41 8.64 8.64 0 00-5.41-10.99zm-65.94 10.26l-24.9-8.46a8.65 8.65 0 00-11 5.4 8.66 8.66 0 005.41 11l24.9 8.46a8.65 8.65 0 0011-5.41 8.64 8.64 0 00-5.41-10.99zm55.8 19.18l-24.9-8.46a8.65 8.65 0 00-11 5.41 8.65 8.65 0 005.41 11l24.9 8.46a8.67 8.67 0 0011-5.41 8.67 8.67 0 00-5.41-11zm-65.92 10.26l-24.9-8.46a8.65 8.65 0 00-11 5.41 8.67 8.67 0 005.41 11l24.9 8.46a8.67 8.67 0 0011-5.41 8.65 8.65 0 00-5.41-11zm55.83 19.18l-24.9-8.46a8.66 8.66 0 00-11 5.41 8.66 8.66 0 005.41 11l24.9 8.46a8.65 8.65 0 0011-5.41 8.66 8.66 0 00-5.41-11zm-66.26 11.19l-24.9-8.46a8.65 8.65 0 00-11 5.41 8.65 8.65 0 005.41 11l24.9 8.46a8.66 8.66 0 0011-5.41 8.67 8.67 0 00-5.41-11zm55.82 19.19l-24.9-8.47a8.67 8.67 0 00-11 5.41 8.67 8.67 0 005.41 11l24.9 8.46a8.65 8.65 0 0011-5.41 8.64 8.64 0 00-5.41-10.99zm-66.17 10.92l-24.9-8.46a8.65 8.65 0 00-11 5.41 8.65 8.65 0 005.41 11l24.9 8.46a8.67 8.67 0 0011-5.41 8.67 8.67 0 00-5.41-11zm55.82 19.19l-24.9-8.46a8.65 8.65 0 00-11 5.41 8.65 8.65 0 005.4 11l24.91 8.46a8.64 8.64 0 0011-5.41 8.65 8.65 0 00-5.41-11zm-65.94 10.26l-24.9-8.46a8.66 8.66 0 00-11 5.41 8.66 8.66 0 005.41 11l24.9 8.46a8.65 8.65 0 0011-5.41 8.66 8.66 0 00-5.41-11zm55.82 19.19l-24.9-8.46a8.65 8.65 0 00-11 5.4 8.65 8.65 0 005.41 11l24.9 8.46a8.65 8.65 0 0011-5.41 8.66 8.66 0 00-5.41-10.99z" style="mix-blend-mode:multiply" opacity=".6" fill="#235196"/><path class="j" d="M503.93 173.75l-24.9-8.46a8.66 8.66 0 00-11 5.41 8.66 8.66 0 005.41 11l24.9 8.46a8.65 8.65 0 0011-5.41 8.65 8.65 0 00-5.41-11z"/><path d="M1408.19 269.15L1376 258.21a8.49 8.49 0 01-4.06-2.89 8.65 8.65 0 005.56 10.43l24.9 8.46a8.64 8.64 0 0010.77-4.88 8.57 8.57 0 01-4.98-.18z" transform="translate(-904.07 -84.07)" style="mix-blend-mode:multiply" fill="url(#g)"/><path class="j" d="M559.73 192.93l-24.9-8.46a8.65 8.65 0 00-11 5.4 8.65 8.65 0 005.41 11l24.9 8.46a8.66 8.66 0 0011-5.4 8.66 8.66 0 00-5.41-11z"/><path d="M1464 288.34l-32.19-10.94a8.67 8.67 0 01-4.06-2.9 8.64 8.64 0 005.57 10.43l24.9 8.46a8.65 8.65 0 0010.77-4.88 8.6 8.6 0 01-4.99-.17z" transform="translate(-904.07 -84.07)" style="mix-blend-mode:multiply" fill="url(#h)"/><path class="j" d="M493.62 203.66l-24.9-8.46a8.64 8.64 0 00-11 5.41 8.66 8.66 0 005.4 11l24.9 8.46a8.66 8.66 0 0011-5.41 8.65 8.65 0 00-5.4-11z"/><path d="M1397.91 299.06l-32.19-10.94a8.62 8.62 0 01-4.06-2.9 8.65 8.65 0 005.56 10.44l24.9 8.46a8.65 8.65 0 0010.77-4.89 8.57 8.57 0 01-4.98-.17z" transform="translate(-904.07 -84.07)" style="mix-blend-mode:multiply" fill="url(#i)"/><path class="j" d="M549.45 222.84l-24.9-8.46a8.67 8.67 0 00-11 5.41 8.66 8.66 0 005.41 11l24.9 8.46a8.65 8.65 0 0011-5.41 8.65 8.65 0 00-5.41-11z"/><path d="M1453.74 318.24l-32.2-10.93a8.59 8.59 0 01-4-2.9 8.64 8.64 0 005.56 10.43l24.9 8.46a8.64 8.64 0 0010.77-4.88 8.57 8.57 0 01-5.03-.18z" transform="translate(-904.07 -84.07)" style="mix-blend-mode:multiply" fill="url(#j)"/><path class="j" d="M483.35 233.57l-24.9-8.46a8.65 8.65 0 00-11 5.41 8.64 8.64 0 005.41 11l24.9 8.47a8.67 8.67 0 0011-5.41 8.67 8.67 0 00-5.41-11.01z"/><path d="M1387.63 329l-32.19-11a8.67 8.67 0 01-4.06-2.9 8.64 8.64 0 005.57 10.43l24.9 8.47a8.66 8.66 0 0010.77-4.89 8.6 8.6 0 01-4.99-.11z" transform="translate(-904.07 -84.07)" style="mix-blend-mode:multiply" fill="url(#k)"/><path class="j" d="M539.17 252.75l-24.9-8.46a8.65 8.65 0 00-11 5.41 8.67 8.67 0 005.41 11l24.9 8.46a8.65 8.65 0 0011-5.41 8.65 8.65 0 00-5.41-11z"/><path d="M1443.46 348.15l-32.19-10.94a8.55 8.55 0 01-4.06-2.9 8.65 8.65 0 005.56 10.44l24.9 8.46a8.64 8.64 0 0010.77-4.88 8.66 8.66 0 01-4.98-.18z" transform="translate(-904.07 -84.07)" style="mix-blend-mode:multiply" fill="url(#l)"/><path class="j" d="M473.07 263.48l-24.9-8.47a8.67 8.67 0 00-11 5.41 8.66 8.66 0 005.41 11l24.9 8.46a8.65 8.65 0 0011-5.41 8.65 8.65 0 00-5.41-10.99z"/><path d="M1377.36 358.88l-32.2-10.94a8.59 8.59 0 01-4.05-2.9 8.64 8.64 0 005.56 10.43l24.9 8.46a8.64 8.64 0 0010.77-4.88 8.65 8.65 0 01-4.98-.17z" transform="translate(-904.07 -84.07)" style="mix-blend-mode:multiply" fill="url(#m)"/><path class="j" d="M528.93 282.66l-24.9-8.46a8.65 8.65 0 00-11 5.41 8.65 8.65 0 005.41 11l24.9 8.46a8.67 8.67 0 0011-5.41 8.67 8.67 0 00-5.41-11z"/><path d="M1433.18 378.06L1401 367.12a8.67 8.67 0 01-4.06-2.9 8.66 8.66 0 005.57 10.44l24.9 8.46a8.66 8.66 0 0010.77-4.89 8.6 8.6 0 01-5-.17z" transform="translate(-904.07 -84.07)" style="mix-blend-mode:multiply" fill="url(#n)"/><path class="j" d="M462.79 293.38l-24.86-8.45a8.66 8.66 0 00-11 5.41 8.67 8.67 0 005.41 11l24.9 8.46a8.65 8.65 0 0011-5.41 8.65 8.65 0 00-5.45-11.01z"/><path d="M1367.08 388.78l-32.19-10.93a8.62 8.62 0 01-4.06-2.9 8.65 8.65 0 005.56 10.43l24.9 8.46a8.64 8.64 0 0010.77-4.88 8.57 8.57 0 01-4.98-.18z" transform="translate(-904.07 -84.07)" style="mix-blend-mode:multiply" fill="url(#o)"/><path class="j" d="M518.62 312.57l-24.9-8.46a8.65 8.65 0 00-11 5.41 8.65 8.65 0 005.41 11l24.9 8.46a8.65 8.65 0 0011-5.4 8.66 8.66 0 00-5.41-11.01z"/><path d="M1422.91 408l-32.2-11a8.59 8.59 0 01-4-2.9 8.64 8.64 0 005.56 10.43l24.9 8.46a8.64 8.64 0 0010.77-4.88 8.57 8.57 0 01-5.03-.11z" transform="translate(-904.07 -84.07)" style="mix-blend-mode:multiply" fill="url(#p)"/><path class="j" d="M452.52 323.29l-24.9-8.46a8.65 8.65 0 00-11 5.41 8.65 8.65 0 005.41 11l24.9 8.46a8.65 8.65 0 0011-5.41 8.65 8.65 0 00-5.41-11z"/><path d="M1356.8 418.69l-32.19-10.94a8.67 8.67 0 01-4.06-2.9 8.66 8.66 0 005.57 10.44l24.9 8.46a8.65 8.65 0 0010.77-4.88 8.69 8.69 0 01-4.99-.18z" transform="translate(-904.07 -84.07)" style="mix-blend-mode:multiply" fill="url(#q)"/><path class="j" d="M508.34 342.48l-24.9-8.47a8.67 8.67 0 00-11 5.41 8.67 8.67 0 005.41 11l24.9 8.46a8.65 8.65 0 0011-5.41 8.64 8.64 0 00-5.41-10.99z"/><path d="M1412.63 437.88l-32.19-10.94a8.62 8.62 0 01-4.06-2.9 8.64 8.64 0 005.56 10.43l24.9 8.46a8.64 8.64 0 0010.77-4.88 8.65 8.65 0 01-4.98-.17z" transform="translate(-904.07 -84.07)" style="mix-blend-mode:multiply" fill="url(#r)"/><path class="f" d="M532.14 417.02a11.7 11.7 0 11-11.7-11.7 11.69 11.69 0 0111.7 11.7zm-452.1-38.99a11.7 11.7 0 11-11.7-11.7 11.69 11.69 0 0111.7 11.7zm469.4 63.58a6.19 6.19 0 11-6.19-6.2 6.19 6.19 0 016.19 6.2zM49.38 357.67a6.2 6.2 0 11-6.19-6.19 6.19 6.19 0 016.19 6.19z"/></g></svg>