<svg xmlns="http://www.w3.org/2000/svg" viewBox="0 0 50 50"><path d="M25 50C11.2 50 0 38.8 0 25S11.2 0 25 0s25 11.2 25 25-11.2 25-25 25zm10.8-5.9c-2.1-.6-3.9-1.7-5.6-3.1-1.2-1.1-1.7-3.2-1.9-4.6-2.1.8-4.4.8-6.6.1-.1 1.7-.8 3.2-1.9 4.5-1.7 1.5-3.6 2.5-5.7 3.2 6.9 3.8 15.1 3.7 21.7-.1zM25 33.9c3.9 0 7-3.1 7-7v-5.8c0-3.9-3.1-7-7-7s-7 3.1-7 7v5.8c0 3.8 3.1 7 7 7zM25 3C12.8 3 3 12.8 3 25c0 6.6 2.9 12.8 8 17 2.3-.3 4.5-1.2 6.3-2.8 1.1-1.1 1.7-2.6 1.7-4.2-2.5-1.9-4-4.9-4-8v-6c0-5.5 4.5-10 10-10s10 4.5 10 10v6c0 3-1.4 5.9-3.8 7.8 0 1.6.6 3.2 1.7 4.4 1.7 1.5 3.8 2.4 6.1 2.7 9.3-7.8 10.6-21.6 2.9-31C37.7 5.9 31.5 3 25 3z" fill-rule="evenodd" clip-rule="evenodd"/></svg>